<svg width="140" height="140" viewBox="0 0 140 140" fill="none" xmlns="http://www.w3.org/2000/svg">
<g clip-path="url(#clip0_311_1363)">
<path d="M62.2658 101.315C62.2951 102.886 60.4679 104.543 58.5234 104.633C58.7834 105.849 59.102 107.035 58.582 108.277C57.8276 110.234 55.7989 111.3 53.7959 111.034C50.5771 110.589 49.7055 106.055 52.8108 104.693C53.9131 104.218 55.5646 105.314 54.3488 106.41C53.6824 107.031 52.5801 107.211 53.0708 108.513C53.3601 109.224 54.1438 109.373 54.7809 109.253C55.8832 109.048 56.491 108.097 56.5496 107.031C56.6961 106.111 56.3482 105.164 56.1139 104.214C54.6638 103.503 53.5615 101.872 53.968 100.215C54.2866 98.763 56.0553 99.3541 55.3595 100.274C55.0409 100.896 55.506 101.786 56.026 102.261C56.1725 101.58 56.4032 100.929 56.7803 100.304C58.2341 98.026 62.2072 97.9063 62.2658 101.315ZM60.0907 100.248C58.8127 100.013 58.2927 101.73 58.2634 102.65C58.2634 102.71 58.2634 102.77 58.2634 102.83C58.6992 102.77 59.1349 102.624 59.4828 102.385C60.38 101.76 61.0501 100.574 60.0907 100.248Z" fill="#767676"/>
<path d="M66.0674 101.049C65.7781 101.404 65.2252 102.115 64.6173 103.005C64.8187 103.005 64.9945 103.035 65.0823 103.035C65.5474 103.065 65.053 104.311 64.5038 104.311C64.3024 104.311 64.0094 104.281 63.7201 104.281C62.3579 106.268 60.9957 108.4 61.1971 108.58C61.5743 108.995 63.4016 106.893 64.1559 106.002C64.6795 105.411 65.346 106.092 64.7931 106.713C63.4894 108.105 61.545 110.832 59.9777 110.537C58.8169 110.357 58.3518 109.025 59.3112 107.693C59.7177 107.102 60.5892 105.677 61.4864 104.225C61.3399 104.225 61.1971 104.225 61.0506 104.225C60.527 104.225 61.0799 102.949 61.6036 102.919C61.75 102.919 62.01 102.919 62.2993 102.919C63.2258 101.438 64.0387 100.162 64.3024 99.9263C64.7674 99.4811 65.3167 99.1257 65.7818 99.2454C66.2395 99.3876 66.9353 100.042 66.0674 101.049Z" fill="#767676"/>
<path d="M72.2441 106.739C70.9661 108.131 69.0546 110.829 67.4873 110.563C66.9087 110.443 66.6744 109.912 66.733 109.257C66.2386 109.818 65.5721 110.323 64.8471 110.323C62.4412 110.323 63.137 107.211 64.5578 105.523C65.9786 103.832 67.7766 102.65 68.9081 103.121C69.2853 103.271 69.516 103.567 69.6332 103.892C69.6918 103.802 69.7211 103.742 69.7797 103.686C70.2447 103.241 70.8233 102.886 71.259 103.035C71.7534 103.155 72.4199 103.836 71.5776 104.842C70.5926 105.969 68.736 108.221 69.0253 108.516C69.2853 108.782 70.9112 106.885 71.6655 105.998C72.1855 105.404 72.7934 106.144 72.2441 106.739ZM67.3994 106.739C68.3002 105.613 68.8495 104.667 68.6481 104.487C68.476 104.307 67.5752 105.138 66.5901 106.354C65.6344 107.54 65.14 108.696 65.2572 108.812C65.5135 109.078 66.4986 107.865 67.3994 106.739Z" fill="#767676"/>
<path d="M77.3502 101.049C77.0609 101.404 76.508 102.115 75.9001 103.005C76.1015 103.005 76.2773 103.035 76.3651 103.035C76.8302 103.065 76.3358 104.311 75.7866 104.311C75.5852 104.311 75.2922 104.281 75.0029 104.281C73.6407 106.268 72.2785 108.4 72.4799 108.58C72.8571 108.995 74.6844 106.893 75.4387 106.002C75.9624 105.411 76.6288 106.092 76.0759 106.713C74.7722 108.105 72.8278 110.832 71.2605 110.537C70.0996 110.357 69.6346 109.025 70.594 107.693C71.0005 107.102 71.872 105.677 72.7692 104.225C72.6227 104.225 72.4799 104.225 72.3334 104.225C71.8097 104.225 72.3627 102.949 72.8863 102.919C73.0328 102.919 73.2928 102.919 73.5821 102.919C74.5086 101.438 75.3215 100.162 75.5852 99.9263C76.0502 99.4811 76.5995 99.1257 77.0646 99.2454C77.5223 99.3876 78.2181 100.042 77.3502 101.049Z" fill="#767676"/>
<path d="M79.494 106.739C78.1867 108.131 76.3045 110.829 74.7079 110.563C73.5764 110.357 73.4592 109.022 74.3893 107.69C75.3744 106.328 76.4766 104.222 77.0002 103.69C77.4653 103.245 78.0439 102.89 78.4797 103.039C78.974 103.159 79.6698 103.84 78.7982 104.846C77.8132 105.973 75.9566 108.225 76.2459 108.52C76.5059 108.786 78.1611 106.889 78.9154 106.002C79.4061 105.404 80.0433 106.145 79.494 106.739ZM79.5526 102.235C78.1611 102.235 79.5233 99.0923 81.1199 99.4477C82.5956 99.7732 80.6548 102.59 79.5526 102.235Z" fill="#767676"/>
<path d="M86.4568 106.739C86.021 107.184 85.5596 107.776 85.0653 108.34C83.963 109.556 83.6152 110.002 82.5422 109.792C82.3665 109.762 82.2529 109.702 82.1358 109.612C81.44 110.118 80.7442 110.383 80.162 110.383C78.1882 110.383 77.5511 108.337 78.7412 106.294C79.9313 104.221 81.8721 102.886 83.2673 102.886C84.7467 102.886 85.8782 104.131 84.7174 106.47C84.3402 107.211 83.9045 107.862 83.4394 108.426C83.6408 108.337 83.9887 108.071 84.3402 107.686C84.8895 107.121 85.4718 106.44 85.8489 105.995C86.3689 105.404 87.0061 106.144 86.4568 106.739ZM83.1794 104.633C82.3372 104.633 79.4955 108.722 80.3085 108.722C80.9164 108.722 84.0216 104.633 83.1794 104.633Z" fill="#767676"/>
<path d="M93.2408 106.739C91.9372 108.131 90.0513 110.829 88.4547 110.563C86.8582 110.267 87.2646 108.696 88.224 107.364C89.1505 106.032 90.3406 105.022 90.1392 104.757C89.9634 104.491 88.224 106.298 87.6748 106.889C87.0376 107.866 86.3967 108.816 85.9939 109.377C85.3861 110.237 85.1224 110.563 84.4267 110.563C83.3537 110.563 83.643 109.111 84.9503 107.364C85.9061 106.032 86.7483 104.637 86.8948 104.341C87.3305 103.451 87.4733 103.009 88.0849 103.009C88.5499 103.009 89.1285 103.365 89.2164 103.986C89.9122 103.425 90.6372 103.009 91.3623 103.009C92.058 103.009 93.0431 103.84 92.1166 105.202C91.1902 106.564 89.7108 108.225 90 108.52C90.26 108.786 91.8859 106.889 92.6403 106.002C93.1529 105.404 93.7938 106.145 93.2408 106.739Z" fill="#767676"/>
<path d="M18.8142 64.0849L19.8102 65.978C21.1797 68.582 20.2203 71.8556 17.7009 73.2399L15.4709 74.4671L20.0043 83.0722C20.224 83.4875 20.0739 83.9851 19.671 84.2095L17.646 85.3245C17.2396 85.5489 16.7525 85.3955 16.5328 84.984L6.404 65.7647C6.18429 65.3495 6.33441 64.8519 6.73722 64.6274L11.7137 61.8887C14.2368 60.5007 17.4446 61.4847 18.8142 64.0849ZM15.2621 65.8471C14.9179 65.1961 14.1489 64.9342 13.5117 65.2859L11.2816 66.513L13.5886 70.8904L15.8187 69.6632C16.4559 69.3115 16.6683 68.5109 16.3387 67.8898L15.2621 65.8471Z" fill="#767676"/>
<path d="M25.4707 59.8126L27.1625 64.5079L29.876 63.4865C30.3081 63.3256 30.7731 63.5426 30.9306 63.9841L31.6337 65.937C31.7911 66.3785 31.5788 66.8537 31.1467 67.0145L28.4332 68.0359L30.8281 74.6841L35.1161 73.0716C35.5483 72.9108 36.0133 73.1278 36.1708 73.5692L36.8958 75.5858C37.0533 76.0273 36.8409 76.5024 36.4088 76.6633L29.1583 79.3907C28.7262 79.5515 28.2611 79.3345 28.1036 78.8931L20.7213 58.4096C20.5638 57.9681 20.7762 57.493 21.2083 57.3321L28.4552 54.6047C28.8873 54.4438 29.3523 54.6608 29.5098 55.1023L30.2349 57.1189C30.3923 57.5603 30.1799 58.0355 29.7478 58.1963L25.4707 59.8126Z" fill="#767676"/>
<path d="M43.5541 51.3349L44.0778 53.4861C44.1876 53.9426 43.891 54.399 43.4772 54.5038L40.7345 55.1997L45.1581 73.4197C45.2679 73.8761 45.0042 74.3251 44.5575 74.4373L42.3237 75.0022C41.9099 75.107 41.4376 74.8451 41.3277 74.3887L36.9041 56.1686L34.1907 56.857C33.7439 56.9693 33.3045 56.6999 33.1946 56.2435L32.671 54.0922C32.5611 53.6358 32.8248 53.1868 33.2715 53.0746L42.5544 50.7213C42.9756 50.6166 43.4443 50.8785 43.5541 51.3349Z" fill="#767676"/>
<path d="M56.9917 61.0399L60.6829 66.2103C60.8916 66.5209 61.0088 66.9099 61.06 67.2766L61.5141 70.6026C61.5764 71.0665 61.3017 71.4818 60.8476 71.5454L58.57 71.8709C58.1159 71.9345 57.6728 71.6239 57.6105 71.16L57.2919 68.833C57.2407 68.4663 57.1272 68.1109 56.9111 67.733L52.5278 61.6423L53.901 71.7212C53.9633 72.1851 53.6557 72.6041 53.2016 72.6677L50.9239 72.9932C50.4991 73.0531 50.0597 72.7426 49.9974 72.2787L47.0459 50.6579C46.9837 50.194 47.3242 49.7712 47.7454 49.7114L53.3774 48.9108C56.241 48.503 58.8812 50.5681 59.2803 53.4938L59.566 55.5889C59.8736 57.8486 58.7713 59.9737 56.9917 61.0399ZM53.8974 52.7343L51.3597 53.0972L52.0371 58.0544L54.5748 57.6915C55.2596 57.5942 55.7613 56.9133 55.6587 56.1463L55.3438 53.853C55.2449 53.1197 54.5821 52.637 53.8974 52.7343Z" fill="#767676"/>
<path d="M74.5117 51.7651L75.006 66.6368C75.0866 69.02 73.2447 70.9992 70.945 71.0778L67.3307 71.2012C64.9981 71.2835 63.061 69.4353 62.9841 67.0521L62.4897 52.1804C62.4091 49.7972 64.2181 47.7844 66.5507 47.7058L70.165 47.5823C72.461 47.5038 74.4311 49.3856 74.5117 51.7651ZM70.5788 52.2403C70.5642 51.7689 70.1577 51.4471 69.6963 51.4658L67.2648 51.5519C66.8034 51.5668 66.4226 51.9185 66.4372 52.3862L66.9059 66.4834C66.9206 66.9548 67.3307 67.3439 67.7885 67.3252L70.22 67.2392C70.6814 67.2242 71.0622 66.8052 71.0439 66.3375L70.5788 52.2403Z" fill="#767676"/>
<path d="M82.502 48.6404L81.4327 67.4478L86.0247 67.721C86.4824 67.7472 86.823 68.14 86.7973 68.6076L86.6765 70.7514C86.6509 71.2191 86.2664 71.567 85.8086 71.5408L78.0967 71.0844C77.639 71.0582 77.2984 70.6654 77.324 70.1977L78.5618 48.4085C78.5874 47.9408 78.9719 47.5929 79.4296 47.6191L81.7256 47.7537C82.187 47.7837 82.5276 48.1728 82.502 48.6404Z" fill="#767676"/>
<path d="M94.649 52.854L93.9496 57.8074L96.8132 58.2302C97.2672 58.2975 97.5748 58.7165 97.5089 59.1805L97.2196 61.2419C97.1537 61.7058 96.7436 62.0201 96.2895 61.9527L93.4259 61.53L92.4372 68.5448L96.9596 69.2107C97.4137 69.2781 97.7213 69.6971 97.6554 70.161L97.3551 72.2898C97.2892 72.7537 96.8791 73.068 96.425 73.0006L88.779 71.8745C88.3249 71.8072 88.0173 71.3881 88.0832 70.9242L91.1299 49.3185C91.1958 48.8546 91.606 48.5404 92.06 48.6077L99.7061 49.7338C100.16 49.8012 100.468 50.2202 100.402 50.6841L100.102 52.8129C100.036 53.2768 99.6255 53.591 99.1714 53.5237L94.649 52.854Z" fill="#767676"/>
<path d="M113.254 52.8538L115.484 53.4337C115.93 53.5497 116.183 54.0323 116.07 54.4888L111.631 72.2562C111.064 74.5346 108.742 75.9376 106.516 75.3577L103.011 74.4449C100.781 73.865 99.4043 71.493 99.9755 69.2183L104.414 51.4508C104.527 50.9944 104.974 50.6951 105.421 50.8111L107.651 51.391C108.098 51.5069 108.35 51.9896 108.237 52.446L103.894 69.8244C103.78 70.2808 104.073 70.7372 104.52 70.8532L106.878 71.4668C107.325 71.5828 107.797 71.3246 107.911 70.8682L112.254 53.4898C112.36 53.0371 112.807 52.7378 113.254 52.8538Z" fill="#767676"/>
<path d="M129.122 79.9521L127.932 82.8292C127.749 83.2595 127.243 83.4391 126.851 83.2632L124.742 82.3241C124.321 82.1371 124.134 81.6507 124.317 81.2204L125.339 78.8185C125.42 78.6352 125.482 78.4781 125.533 78.2835L128.576 68.0285L123.347 76.6897C123.131 77.0339 122.71 77.1761 122.347 77.0152L120.055 75.9976C119.692 75.8367 119.48 75.4139 119.575 75.0173L122.216 65.2038L116.942 74.4674C116.833 74.6395 116.767 74.7928 116.69 74.9762L115.668 77.3781C115.485 77.8084 115.009 77.9992 114.588 77.8121L112.479 76.873C112.057 76.686 111.871 76.1996 112.054 75.7693L113.302 72.9184C113.343 72.8249 113.434 72.6117 113.57 72.376L123.102 56.7297C123.318 56.3855 123.739 56.2434 124.131 56.4192L126.39 57.4256C126.782 57.6015 126.965 58.0093 126.87 58.4059L123.9 70.0863L130.275 59.9173C130.491 59.5731 130.912 59.431 131.275 59.5918L133.567 60.6095C133.959 60.7853 134.142 61.1931 134.047 61.5897L129.338 79.3797C129.254 79.6416 129.162 79.8586 129.122 79.9521Z" fill="#767676"/>
<path d="M72.7885 78.2125C72.7739 78.2125 72.7556 78.2125 72.7409 78.2125C72.7336 78.2125 72.7263 78.2125 72.7153 78.2125C72.708 78.2125 72.7006 78.2125 72.6897 78.2125C72.675 78.2125 72.6567 78.2125 72.6421 78.2125C49.4147 78.2125 28.9044 84.8645 16.5272 95.0332L22.3789 98.015L23.0857 104.94C25.1656 103.043 27.6997 101.218 30.6731 99.5115C41.721 93.1626 56.6249 89.6645 72.6384 89.6645C72.653 89.6645 72.6714 89.6645 72.686 89.6645C72.6933 89.6645 72.7006 89.6645 72.7116 89.6645C72.719 89.6645 72.7263 89.6645 72.7373 89.6645C72.7519 89.6645 72.7702 89.6645 72.7849 89.6645C88.802 89.6645 103.706 93.1626 114.75 99.5115C117.724 101.221 120.258 103.043 122.338 104.94L123.044 98.015L128.896 95.0332C116.526 84.8645 96.0159 78.2125 72.7885 78.2125Z" fill="#767676"/>
<path d="M47.76 107.518C48.9867 107.518 48.9867 105.576 47.76 105.576C46.5333 105.576 46.5333 107.518 47.76 107.518Z" fill="#767676"/>
<path d="M96.2837 107.518C97.5104 107.518 97.5104 105.576 96.2837 105.576C95.057 105.576 95.057 107.518 96.2837 107.518Z" fill="#767676"/>
<path d="M29.521 94.5543C29.8616 95.1341 29.6785 95.8823 29.1109 96.2302C28.5506 96.5744 27.8109 96.3911 27.4703 95.8112C27.1334 95.2388 27.3202 94.4794 27.8804 94.1353C28.448 93.7874 29.1841 93.9819 29.521 94.5543Z" fill="white"/>
<path d="M35.6408 92.1111L36.0729 93.0501C36.3952 93.7498 36.1059 94.5879 35.4211 94.9208L33.9417 95.6317C33.8318 95.6841 33.7073 95.6392 33.6561 95.527L31.2722 90.3563C31.2209 90.2441 31.2649 90.1169 31.3747 90.0645L32.7296 89.4135C33.4144 89.0843 34.231 89.3911 34.5532 90.0907L34.7913 90.607C34.9121 90.8689 34.9524 91.142 34.9048 91.4077C35.2234 91.5311 35.487 91.7743 35.6408 92.1111ZM33.0811 91.7968L33.6963 91.5012C33.8611 91.4226 33.9344 91.2131 33.8575 91.0448L33.6048 90.4948C33.5242 90.3189 33.3192 90.2441 33.1544 90.3227L32.5392 90.6182L33.0811 91.7968ZM34.6851 92.5114C34.6045 92.3355 34.3994 92.2607 34.2347 92.3393L33.4949 92.6947L34.2566 94.3484L34.9963 93.993C35.1611 93.9144 35.2344 93.7049 35.1501 93.5216L34.6851 92.5114Z" fill="white"/>
<path d="M36.537 88.8001L37.0203 90.016L37.7234 89.7242C37.8369 89.6793 37.9578 89.7317 38.0054 89.8439L38.2068 90.349C38.2507 90.465 38.1995 90.5884 38.0896 90.6371L37.3865 90.9289L38.0676 92.6498L39.1772 92.1897C39.2871 92.1448 39.4116 92.1971 39.4555 92.3094L39.6642 92.8294C39.7082 92.9454 39.6569 93.0688 39.5471 93.1175L37.6722 93.8919C37.5587 93.9368 37.4378 93.8844 37.3902 93.7722L35.2883 88.4747C35.2443 88.3624 35.2956 88.2352 35.4055 88.1866L37.2803 87.4122C37.3902 87.3673 37.5147 87.4196 37.5587 87.5319L37.7637 88.0519C37.8077 88.1641 37.7564 88.2913 37.6465 88.34L36.537 88.8001Z" fill="white"/>
<path d="M40.9865 87.6926L40.9279 87.5167C40.8657 87.3334 40.6716 87.2436 40.4922 87.3072L40.1187 87.4419C39.9392 87.5055 39.8404 87.7 39.9026 87.8834L40.0747 88.3884C40.137 88.5717 40.331 88.6615 40.5141 88.6054L40.8877 88.4707C41.6127 88.2126 42.3891 88.5979 42.6417 89.3387L42.9896 90.3601C43.2386 91.0896 42.8578 91.8977 42.1437 92.1521L41.7702 92.2868C41.0561 92.5412 40.2651 92.1521 40.0161 91.4189L39.7854 90.7379C39.7451 90.622 39.8037 90.4985 39.9173 90.4573L40.4849 90.2553C40.5984 90.2142 40.7192 90.274 40.7595 90.39L41.0048 91.1121C41.0671 91.2954 41.2648 91.3927 41.4443 91.3291L41.8178 91.1944C41.9972 91.1308 42.0924 90.9288 42.0302 90.7454L41.6603 89.6642C41.5981 89.4809 41.404 89.3911 41.2246 89.4547L40.8511 89.5894C40.1333 89.8363 39.3497 89.4622 39.1006 88.7326L38.9395 88.2575C38.6905 87.5279 39.0714 86.7198 39.7854 86.4654L40.1589 86.3307C40.884 86.0726 41.664 86.4654 41.913 87.1987L41.9606 87.3409C42.0009 87.4569 41.9423 87.5803 41.8288 87.6215L41.2612 87.8235C41.1477 87.8684 41.0268 87.8085 40.9865 87.6926Z" fill="white"/>
<path d="M45.2493 84.9392L45.4104 85.4967C45.4434 85.6164 45.3738 85.7361 45.2639 85.7698L44.5535 85.983L45.9194 90.6968C45.9523 90.8165 45.8901 90.9362 45.7729 90.9698L45.1943 91.1457C45.0881 91.1793 44.96 91.1158 44.927 90.996L43.5611 86.2823L42.8617 86.4955C42.7445 86.5292 42.6274 86.4656 42.5944 86.3459L42.4333 85.7885C42.4003 85.6688 42.4626 85.549 42.5797 85.5154L44.9819 84.7896C45.0918 84.7597 45.2163 84.8195 45.2493 84.9392Z" fill="white"/>
<path d="M52.0699 88.3137L52.4068 88.2388C52.5057 88.2164 52.6302 88.2875 52.6558 88.4072L52.7766 88.9647C52.8023 89.0844 52.7217 89.2004 52.6045 89.2303L50.942 89.6082C50.2865 89.7579 49.6384 89.3351 49.4956 88.6729L48.7156 85.0773C48.5691 84.4076 48.9829 83.7454 49.6384 83.5994L50.3451 83.4386C51.0006 83.2889 51.6488 83.7117 51.7916 84.3814L52.4324 87.3446C52.513 87.7188 52.3592 88.0967 52.0699 88.3137ZM50.7809 84.6059C50.7553 84.4862 50.6308 84.4038 50.5136 84.4338L49.8911 84.576C49.7739 84.6021 49.6933 84.7294 49.7226 84.8491L50.5026 88.4484C50.5282 88.5606 50.649 88.6392 50.7662 88.613L51.6048 88.4222L50.7809 84.6059Z" fill="white"/>
<path d="M55.0473 82.5146L55.6406 82.4098C55.7578 82.3874 55.8713 82.4772 55.8896 82.5969L56.6989 87.3261C56.8014 87.9322 56.3949 88.5233 55.8017 88.6281L54.8679 88.7927C54.2747 88.8975 53.6961 88.4822 53.5936 87.8761L52.7843 83.1469C52.7623 83.0272 52.8392 82.9037 52.9564 82.885L53.5496 82.7802C53.6668 82.7578 53.7803 82.8476 53.7986 82.9673L54.5896 87.5917C54.6116 87.7114 54.7287 87.79 54.8459 87.7676L55.4721 87.6553C55.5893 87.6329 55.6772 87.5206 55.6552 87.4009L54.8642 82.7765C54.8532 82.6568 54.9301 82.5333 55.0473 82.5146Z" fill="white"/>
<path d="M60.7543 86.8923L60.8532 87.6593C60.8678 87.7828 60.7872 87.8913 60.6664 87.9062L60.0585 87.9885C59.9487 88.0035 59.8425 87.9212 59.8242 87.7977L59.7216 87.0046L58.5791 87.158L58.6816 87.9511C58.6963 88.0746 58.6157 88.1831 58.4949 88.1981L57.898 88.2804C57.7772 88.2953 57.671 88.213 57.6563 88.0896L57.5574 87.3226C57.5538 87.2889 57.5501 87.2627 57.5501 87.2066L57.6636 82.2943C57.6673 82.1783 57.7515 82.0885 57.8614 82.0736L59.143 81.9015C59.2529 81.8865 59.3518 81.9726 59.3811 82.0661L60.7286 86.7838C60.7433 86.8325 60.7469 86.8587 60.7543 86.8923ZM59.4763 86.0356L58.6267 83.0164L58.5718 86.1553L59.4763 86.0356Z" fill="white"/>
<path d="M62.1434 81.7812L62.6048 86.6935L63.8059 86.5738C63.9268 86.5625 64.0293 86.6486 64.0403 86.7721L64.0916 87.3333C64.1025 87.4567 64.0183 87.5615 63.8975 87.5727L61.8834 87.771C61.7626 87.7822 61.6601 87.6962 61.6491 87.5727L61.1144 81.8822C61.1034 81.7587 61.1877 81.654 61.3085 81.6428L61.9091 81.5829C62.0299 81.5717 62.1324 81.6577 62.1434 81.7812Z" fill="white"/>
<path d="M65.7103 87.4379L65.1097 87.4828C64.9889 87.4903 64.89 87.4005 64.879 87.2771L64.4872 81.5829C64.4799 81.4594 64.5677 81.3472 64.6849 81.3397L65.2855 81.2948C65.4063 81.2874 65.5089 81.3846 65.5162 81.5081L65.908 87.2023C65.919 87.3257 65.8311 87.4305 65.7103 87.4379Z" fill="white"/>
<path d="M69.3836 81.3053L69.4092 81.8852C69.4128 82.0087 69.314 82.1097 69.2041 82.1134L68.4644 82.1471L68.6731 87.0595C68.6768 87.183 68.5889 87.284 68.4681 87.2878L67.8675 87.314C67.754 87.3177 67.6478 87.2279 67.6441 87.1044L67.4354 82.192L66.703 82.2257C66.5822 82.2294 66.4833 82.1396 66.4797 82.0161L66.454 81.4362C66.4504 81.3128 66.5383 81.2117 66.6591 81.208L69.1638 81.0958C69.27 81.0883 69.3762 81.1818 69.3836 81.3053Z" fill="white"/>
<path d="M72.6624 81.0409L73.2666 81.0334C73.3874 81.0334 73.4826 81.127 73.4826 81.2504L73.49 82.1221C73.49 82.2193 73.4753 82.3166 73.4313 82.4027L72.3584 84.7071L72.3804 86.9742C72.3804 87.0976 72.2888 87.1949 72.168 87.1949L71.5638 87.2024C71.4429 87.2024 71.3477 87.1088 71.3477 86.9854L71.3257 84.7183L70.2015 82.4326C70.1649 82.3465 70.1393 82.2493 70.1393 82.152L70.132 81.2804C70.132 81.1569 70.2235 81.0596 70.3444 81.0596L70.9486 81.0522C71.0694 81.0522 71.1646 81.1457 71.1646 81.2691L71.172 81.9388C71.172 82.0099 71.1903 82.0809 71.2269 82.1408L71.8311 83.3828L72.4133 82.1296C72.439 82.0697 72.4536 81.9986 72.4536 81.9276L72.4463 81.2579C72.45 81.1419 72.5415 81.0447 72.6624 81.0409Z" fill="white"/>
<path d="M78.9575 84.2995C78.9282 84.9768 78.3679 85.4969 77.7051 85.4632C77.0496 85.4333 76.5333 84.8608 76.5663 84.1835C76.5955 83.5137 77.1632 82.986 77.8186 83.0197C78.4814 83.0534 78.9868 83.6334 78.9575 84.2995Z" fill="white"/>
<path d="M85.3645 85.5114L85.2583 86.544C85.1814 87.3147 84.5077 87.8796 83.7533 87.7973L82.1274 87.6252C82.0066 87.614 81.9224 87.5055 81.937 87.382L82.5192 81.6992C82.5302 81.5757 82.6364 81.4897 82.7573 81.5046L84.2477 81.6618C85.002 81.7403 85.544 82.4362 85.4671 83.2069L85.4085 83.7755C85.3792 84.0636 85.2766 84.318 85.0972 84.52C85.3023 84.8006 85.4048 85.1448 85.3645 85.5114ZM84.3429 85.3506C84.3612 85.1598 84.2257 84.9839 84.0463 84.9652L83.2333 84.8792L83.0466 86.6974L83.8595 86.7834C84.0389 86.8021 84.211 86.66 84.2293 86.4617L84.3429 85.3506ZM83.3322 83.8915L84.0096 83.9626C84.1891 83.9813 84.3612 83.8391 84.3795 83.6558L84.4417 83.0535C84.4601 82.8627 84.3246 82.6868 84.1451 82.6681L83.4677 82.5971L83.3322 83.8915Z" fill="white"/>
<path d="M87.7434 83.1133L87.5603 84.4116L88.311 84.5201C88.4318 84.5388 88.5124 84.6473 88.4941 84.767L88.4171 85.3058C88.3988 85.4293 88.2927 85.5116 88.1755 85.4929L87.4248 85.3844L87.1685 87.2214L88.3512 87.3936C88.4721 87.4123 88.5526 87.5208 88.5343 87.6405L88.4574 88.198C88.4391 88.3215 88.3329 88.4038 88.2121 88.3851L86.209 88.0932C86.0882 88.0745 86.0113 87.966 86.026 87.8463L86.8169 82.1891C86.8352 82.0657 86.9414 81.9871 87.0623 82.0021L89.0653 82.2939C89.1861 82.3126 89.263 82.4211 89.2484 82.5408L89.1715 83.0983C89.1532 83.2218 89.047 83.3004 88.9262 83.2854L87.7434 83.1133Z" fill="white"/>
<path d="M92.1151 84.4079L92.1481 84.2245C92.181 84.0337 92.0566 83.8579 91.8698 83.8242L91.4816 83.7532C91.2949 83.7195 91.1155 83.8355 91.0825 84.0263L90.9873 84.5538C90.9543 84.7446 91.0788 84.9204 91.2656 84.9616L91.6537 85.0326C92.4081 85.1748 92.8988 85.9006 92.7596 86.6675L92.5692 87.73C92.4337 88.4932 91.7123 89.002 90.969 88.8636L90.5808 88.7925C89.8375 88.6541 89.3358 87.9171 89.4713 87.1576L89.5994 86.4468C89.6214 86.3271 89.7313 86.2485 89.8484 86.271L90.4417 86.3832C90.5588 86.4057 90.6358 86.5179 90.6138 86.6376L90.4783 87.3896C90.4453 87.5804 90.5698 87.7637 90.7566 87.7974L91.1447 87.8685C91.3315 87.9021 91.5109 87.7749 91.5439 87.5841L91.7453 86.458C91.7782 86.2672 91.6537 86.0914 91.467 86.0577L91.0788 85.9866C90.3355 85.8407 89.8338 85.1187 89.9693 84.3592L90.0572 83.8654C90.1927 83.1059 90.9141 82.5934 91.6574 82.7318L92.0456 82.8029C92.7999 82.9413 93.2906 83.6783 93.1515 84.4378L93.1258 84.5837C93.1039 84.7034 92.994 84.782 92.8768 84.7595L92.2836 84.6473C92.1701 84.6436 92.0932 84.5313 92.1151 84.4079Z" fill="white"/>
<path d="M97.1196 84.127L96.9951 84.692C96.9695 84.8117 96.8487 84.8828 96.7388 84.8566L96.0174 84.692L94.9628 89.4883C94.9372 89.608 94.8237 89.6828 94.7065 89.6529L94.1169 89.5182C94.007 89.492 93.9265 89.376 93.9558 89.2563L95.0104 84.46L94.2963 84.2954C94.1792 84.2692 94.1059 84.1532 94.1352 84.0335L94.2597 83.4686C94.2853 83.3489 94.3989 83.274 94.516 83.304L96.9585 83.8652C97.0647 83.8913 97.1453 84.0073 97.1196 84.127Z" fill="white"/>
<path d="M102.971 87.0267L102.813 87.5655C102.597 88.3063 101.824 88.7328 101.107 88.5121L100.473 88.3175L99.7554 90.7682C99.7225 90.8879 99.6016 90.9515 99.4881 90.9178L98.9095 90.742C98.7923 90.7083 98.7301 90.5848 98.7667 90.4688L100.367 84.9913C100.4 84.8754 100.521 84.808 100.634 84.8417L102.051 85.2757C102.769 85.4964 103.187 86.2859 102.971 87.0267ZM101.993 86.6825C102.048 86.4954 101.953 86.3046 101.769 86.2485L101.136 86.0539L100.773 87.2998L101.407 87.4944C101.59 87.5505 101.773 87.442 101.824 87.2624L101.993 86.6825Z" fill="white"/>
<path d="M105.419 89.87L105.668 91.5274C105.679 91.6246 105.66 91.7294 105.631 91.8229L105.345 92.6535C105.305 92.7694 105.192 92.8331 105.078 92.7919L104.51 92.5861C104.397 92.545 104.331 92.4178 104.371 92.3018L104.573 91.7219C104.606 91.6321 104.62 91.5349 104.613 91.4189L104.313 89.4622L103.445 91.9763C103.404 92.0923 103.284 92.1522 103.17 92.111L102.603 91.9052C102.496 91.8678 102.43 91.7406 102.471 91.6246L104.335 86.2336C104.375 86.1176 104.503 86.0615 104.609 86.0989L106.015 86.604C106.729 86.8621 107.099 87.6665 106.847 88.396L106.667 88.9198C106.466 89.4809 105.96 89.8401 105.419 89.87ZM105.679 87.558L105.045 87.3298L104.617 88.5644L105.25 88.7926C105.422 88.8524 105.62 88.7589 105.686 88.5681L105.884 87.9957C105.949 87.8124 105.851 87.6178 105.679 87.558Z" fill="white"/>
<path d="M106.805 93.4956L106.245 93.2674C106.132 93.2225 106.08 93.0953 106.124 92.9831L108.197 87.6815C108.241 87.5656 108.369 87.5057 108.479 87.5506L109.039 87.7788C109.153 87.8237 109.2 87.9584 109.156 88.0744L107.084 93.3759C107.04 93.4882 106.919 93.5443 106.805 93.4956Z" fill="white"/>
<path d="M111.096 92.2871L111.646 92.5415C111.756 92.5938 111.8 92.7285 111.748 92.8408L111.148 94.2026C110.899 94.7638 110.247 95.022 109.69 94.7675L108.826 94.371C108.277 94.1166 108.028 93.4431 108.273 92.8819L109.844 89.3239C110.097 88.7552 110.745 88.5046 111.302 88.759L112.166 89.1556C112.722 89.4137 112.968 90.0759 112.719 90.6446L112.331 91.5276C112.283 91.6398 112.151 91.6959 112.041 91.6473L111.492 91.3929C111.382 91.3405 111.338 91.2058 111.389 91.0936L111.741 90.3004C111.789 90.1882 111.734 90.0572 111.635 90.0086L111.045 89.7392C110.935 89.6868 110.804 89.7317 110.752 89.844L109.269 93.2112C109.222 93.3234 109.277 93.4543 109.386 93.5067L109.976 93.7761C110.078 93.8247 110.21 93.7798 110.262 93.6676L110.818 92.4105C110.858 92.2945 110.987 92.2384 111.096 92.2871Z" fill="white"/>
<path d="M114.729 91.5464L114.136 92.7099L114.806 93.0691C114.912 93.1252 114.952 93.2562 114.897 93.3647L114.648 93.8473C114.594 93.9558 114.465 93.997 114.359 93.9408L113.689 93.5817L112.847 95.2279L113.909 95.7928C114.015 95.8489 114.055 95.9799 114 96.0884L113.744 96.586C113.689 96.6945 113.561 96.7356 113.455 96.6795L111.66 95.7217C111.554 95.6656 111.514 95.5347 111.569 95.4262L114.161 90.3566C114.216 90.2481 114.345 90.207 114.451 90.2631L116.245 91.2209C116.351 91.277 116.392 91.4079 116.337 91.5164L116.08 92.014C116.025 92.1225 115.897 92.1637 115.791 92.1076L114.729 91.5464Z" fill="white"/>
<path d="M117.922 95.7852C117.582 96.3652 116.85 96.556 116.282 96.208C115.722 95.8638 115.528 95.1117 115.868 94.5317C116.205 93.9592 116.948 93.7684 117.509 94.1089C118.08 94.4569 118.259 95.2127 117.922 95.7852Z" fill="white"/>
<path d="M75.3555 34.8172C75.3555 38.2442 72.6347 41.0239 69.2804 41.0239C65.9261 41.0239 63.2053 38.2442 63.2053 34.8172C63.2053 31.3903 69.2804 22.0858 69.2804 22.0858C69.2804 22.0858 75.3555 31.3903 75.3555 34.8172Z" fill="#767676"/>
<path d="M56.4788 43.3063C54.1351 43.3063 52.2273 41.3571 52.2273 38.9626C52.2273 36.774 55.6182 31.5175 56.0064 30.9264L56.4824 30.2006L56.9585 30.9264C57.3466 31.5175 60.7375 36.774 60.7375 38.9626C60.7302 41.3571 58.8224 43.3063 56.4788 43.3063ZM56.4788 32.3181C55.3106 34.2 53.3661 37.612 53.3661 38.9626C53.3661 40.7136 54.7613 42.1427 56.4788 42.1427C58.1925 42.1427 59.5914 40.7173 59.5914 38.9626C59.5914 37.612 57.6469 34.1963 56.4788 32.3181Z" fill="#767676"/>
<path d="M83.4441 42.5541C81.1005 42.5541 79.1926 40.6049 79.1926 38.2105C79.1926 36.0218 82.5835 30.7653 82.9717 30.1742L83.4477 29.4484L83.9238 30.1742C84.3119 30.7653 87.7028 36.0218 87.7028 38.2105C87.6955 40.6049 85.7877 42.5541 83.4441 42.5541ZM83.4441 31.5659C82.2759 33.4478 80.3315 36.8598 80.3315 38.2105C80.3315 39.9651 81.7266 41.3905 83.4441 41.3905C85.1578 41.3905 86.5567 39.9651 86.5567 38.2105C86.5567 36.8598 84.6122 33.4478 83.4441 31.5659Z" fill="#767676"/>
</g>
<defs>
<clipPath id="clip0_311_1363">
<rect width="140" height="140" fill="white"/>
</clipPath>
</defs>
</svg>
