<svg width="140" height="140" viewBox="0 0 140 140" fill="none" xmlns="http://www.w3.org/2000/svg">
<g clip-path="url(#clip0_311_1499)">
<path d="M28.2572 56.929C28.2741 57.6382 28.1929 58.3716 28.01 59.1292C27.8272 59.8869 27.5698 60.6203 27.2414 61.3295C26.8215 62.2255 26.3135 63.0351 25.7176 63.7547C25.1216 64.4742 24.4782 65.0935 23.7841 65.6194C23.1441 66.0864 22.4736 66.4427 21.7693 66.6849C21.065 66.9271 20.3843 67.0482 19.7274 67.0482H19.6191C18.7962 67.0309 18.0547 66.8371 17.3977 66.4739C16.7408 66.1106 16.1923 65.5813 15.7521 64.8894C15.4608 65.3945 15.2035 65.8477 14.9834 66.249C14.7633 66.6503 14.5804 66.9651 14.4348 67.1865C13.0804 69.4456 11.8038 71.1373 10.5949 72.2582C9.90074 72.874 9.20658 73.3376 8.50902 73.6455C7.81486 73.9534 7.0936 74.1091 6.34187 74.1091C5.26168 74.1091 4.449 73.8185 3.90044 73.2407C3.38912 72.6803 3.13177 71.9607 3.13177 71.082C3.13177 70.3174 3.31124 69.4975 3.66679 68.6292C4.02234 67.7608 4.51333 66.934 5.133 66.1487C5.81024 65.2907 6.54165 64.6265 7.32725 64.1594C8.11284 63.6924 8.89166 63.4571 9.65694 63.4571C10.2969 63.4571 10.8184 63.6439 11.2213 64.0176C11.5701 64.3532 11.7428 64.8133 11.7428 65.391C11.7428 65.8753 11.6209 66.3908 11.3737 66.9305C11.1265 67.4737 10.7947 67.9753 10.3714 68.4423C9.93122 68.9301 9.447 69.3107 8.91875 69.5909C8.2957 69.9092 7.69295 70.0683 7.10715 70.0683C6.96154 70.0683 6.84302 70.0234 6.7516 69.9265C6.66017 69.8331 6.61615 69.712 6.61615 69.5632C6.61615 69.4145 6.66017 69.2969 6.7516 69.2138C6.84302 69.1308 6.96154 69.0893 7.10715 69.0893C7.54735 69.0893 7.98756 68.9786 8.43792 68.7537C8.88489 68.5288 9.30139 68.2036 9.68403 67.7747C10.0125 67.401 10.2766 66.9997 10.4798 66.5707C10.6796 66.1417 10.7812 65.7508 10.7812 65.3945C10.7812 65.3011 10.771 65.1973 10.7541 65.0866C10.7371 64.9759 10.6863 64.8721 10.6017 64.7787C10.5204 64.6853 10.4053 64.6057 10.2597 64.54C10.1141 64.4742 9.9109 64.4431 9.65694 64.4431C9.03388 64.4431 8.39389 64.6437 7.73698 65.0451C7.08006 65.4464 6.457 66.0207 5.87119 66.7679C5.32263 67.4598 4.8892 68.1863 4.56751 68.9544C4.24583 69.7189 4.08668 70.4316 4.08668 71.0854C4.08668 71.722 4.2526 72.2064 4.58106 72.5419C4.92645 72.9329 5.51226 73.13 6.3351 73.13C7.56089 73.13 8.75622 72.5869 9.92783 71.5041C11.0791 70.4593 12.3049 68.8506 13.6018 66.6849C13.7474 66.4427 13.9438 66.1106 14.191 65.6885C14.4382 65.2699 14.7125 64.7891 15.0139 64.2459C15.3152 63.7028 15.6268 63.1215 15.9451 62.4954C16.2634 61.8692 16.5715 61.2292 16.8627 60.5753C17.3029 59.6239 17.6449 58.7971 17.8921 58.0948C18.1393 57.396 18.312 56.7906 18.4136 56.2889C18.5152 55.7838 18.5592 55.3756 18.549 55.0573C18.5389 54.739 18.5084 54.4865 18.4542 54.2997C18.3459 53.9641 18.1427 53.7392 17.8515 53.6285C17.4316 53.459 17.0151 53.4002 16.6054 53.4452C16.1923 53.4936 15.7995 53.6043 15.427 53.7807C15.0511 53.9572 14.7057 54.1959 14.384 54.4969C14.0624 54.7944 13.7847 55.1127 13.5477 55.4483C13.165 56.0468 12.9246 56.6245 12.8332 57.185C12.7959 57.3718 12.7925 57.5759 12.8196 57.8007C12.8467 58.0256 12.9415 58.2401 13.1075 58.4442C13.4732 58.894 13.9201 58.9286 14.4518 58.5549C14.8344 58.3128 15.129 57.9668 15.3288 57.5171C15.5286 57.1261 15.5658 56.7975 15.4371 56.538C15.3085 56.2405 15.3897 56.026 15.6843 55.8946C15.7927 55.8392 15.9112 55.8288 16.0399 55.8669C16.1686 55.9049 16.26 55.9879 16.3142 56.1194C16.4428 56.3823 16.4936 56.666 16.4665 56.9739C16.4395 57.2818 16.3582 57.5863 16.2193 57.8838C16.0839 58.1813 15.9078 58.4685 15.6979 58.7383C15.4879 59.0081 15.2543 59.2296 14.9969 59.3956C14.594 59.6585 14.1572 59.7866 13.6797 59.7866C13.2057 59.7693 12.7654 59.534 12.3625 59.0877C11.9223 58.5446 11.7598 57.863 11.8681 57.0431C11.9765 56.3131 12.2711 55.597 12.7451 54.8843C13.0363 54.4727 13.3851 54.0852 13.7881 53.7219C14.191 53.3587 14.6278 53.0681 15.1053 52.8536C15.5794 52.6391 16.0805 52.5076 16.5986 52.4627C17.1201 52.4177 17.6449 52.4938 18.1766 52.7014C18.7251 52.9262 19.1179 53.3449 19.3549 53.9607C19.4464 54.2789 19.4972 54.6387 19.5073 55.04C19.5175 55.4413 19.4667 55.8945 19.3549 56.3996C19.8493 55.8565 20.3437 55.3894 20.8347 54.9985C21.5119 54.4208 22.1892 53.9606 22.863 53.6251C23.5403 53.2895 24.1701 53.075 24.7559 52.9816C25.7988 52.8328 26.6115 53.075 27.1973 53.7116C27.9084 54.4173 28.2572 55.4898 28.2572 56.929ZM26.3643 60.9074C27.0213 59.5824 27.3328 58.2643 27.2955 56.9566C27.2955 56.3789 27.2312 55.8703 27.1025 55.431C26.9738 54.9916 26.7808 54.6526 26.5269 54.4069C26.1781 53.9952 25.6397 53.8465 24.9083 53.9572C24.4139 54.0333 23.8653 54.2236 23.2626 54.5315C22.6599 54.8394 22.0571 55.2476 21.451 55.7492C20.8279 56.2543 20.2658 56.8079 19.7647 57.4167C19.2601 58.0256 18.8369 58.6449 18.4881 59.2814C18.4881 59.2987 18.4847 59.3091 18.4745 59.3091C18.4644 59.3091 18.461 59.3195 18.461 59.3368C18.3526 59.5997 18.2409 59.8661 18.1325 60.1359C18.0242 60.4058 17.8955 60.6929 17.7499 60.9905C17.2758 62.018 16.7916 62.9797 16.2972 63.8757C16.6257 64.5849 17.0794 65.1212 17.6551 65.4879C18.2307 65.8511 18.8944 66.0449 19.6428 66.0622C20.2286 66.0795 20.8279 65.9826 21.4408 65.7681C22.0537 65.5536 22.6531 65.2319 23.2389 64.8029C23.8789 64.3359 24.4647 63.7754 24.9929 63.1215C25.5212 62.4677 25.9783 61.7308 26.3643 60.9074Z" fill="#767676"/>
<path d="M34.0144 68.695C34.1058 68.7884 34.1566 68.8991 34.1668 69.0306C34.1769 69.1621 34.1329 69.2728 34.0449 69.3662C34.028 69.4042 33.8248 69.6291 33.4421 70.0373C33.0595 70.449 32.5448 70.9057 31.9048 71.4108C30.1305 72.7739 28.522 73.4554 27.0795 73.4554C26.3108 73.4554 25.7318 73.3171 25.339 73.0368C24.9462 72.7566 24.6584 72.466 24.4755 72.1685C24.1268 71.5527 24.0286 70.7812 24.1742 69.8575C24.3198 68.9337 24.7126 67.9097 25.3526 66.7888C26.2465 65.1628 27.2217 63.8377 28.2748 62.8102C29.3245 61.7827 30.3167 61.1842 31.2513 61.0182C31.9658 60.9074 32.5583 61.0458 33.0324 61.4402C33.3981 61.7585 33.5979 62.1875 33.6352 62.7306C33.6521 63.2911 33.4794 63.9138 33.1137 64.5954C32.748 65.2769 32.2163 65.9723 31.5222 66.6815C30.7535 67.4842 29.9408 68.0723 29.0807 68.4459C28.3663 68.7642 27.6823 68.9234 27.0253 68.9234C26.6969 68.9234 26.4023 68.8957 26.1483 68.8403C25.891 68.785 25.681 68.7192 25.5185 68.6431C25.4271 68.8853 25.3492 69.1136 25.2848 69.3281C25.2205 69.5426 25.1697 69.7537 25.1325 69.9578C25.0241 70.7051 25.0851 71.2759 25.3255 71.6668C25.6167 72.21 26.2025 72.4798 27.0795 72.4798C27.8279 72.4798 28.5728 72.2896 29.3144 71.9055C30.056 71.5215 30.723 71.0995 31.3156 70.6324C31.9082 70.1654 32.3924 69.7364 32.7683 69.342C33.1442 68.951 33.3304 68.7435 33.3304 68.7262C33.4218 68.6327 33.5302 68.5808 33.6589 68.5705C33.7875 68.5601 33.9061 68.6016 34.0144 68.695ZM26.172 67.2662C26.1348 67.3596 26.0907 67.4426 26.0366 67.5188C25.9824 67.5949 25.935 67.6779 25.8977 67.7713C26.0433 67.8094 26.2127 67.8474 26.4057 67.882C26.5987 67.9201 26.8222 67.9374 27.0761 67.9374C28.3392 67.9201 29.5988 67.2731 30.8619 66.0034C31.4477 65.4049 31.898 64.8237 32.2197 64.2529C32.538 63.682 32.6904 63.1942 32.6735 62.7825C32.6362 62.5404 32.555 62.3432 32.4263 62.1944C32.1689 61.9695 31.8303 61.9038 31.4104 61.9972C31.0447 62.0526 30.6519 62.2186 30.232 62.4885C29.8122 62.7583 29.3821 63.1112 28.9419 63.5402C27.9531 64.5124 27.0321 65.7544 26.172 67.2662Z" fill="#767676"/>
<path d="M40.651 61.5786C40.9625 61.6166 41.1182 61.7931 41.1182 62.1113C41.1013 62.2601 41.0404 62.3777 40.9388 62.4608C40.8372 62.5438 40.7255 62.5784 40.5968 62.5576C40.1938 62.5196 39.7198 62.5023 39.1712 62.5023C38.6226 62.5023 38.0741 62.5127 37.5255 62.53C37.1226 63.2011 36.7332 63.8792 36.3607 64.5608C35.9848 65.2423 35.6631 65.865 35.3888 66.4255C34.8572 67.4703 34.4712 68.3456 34.224 69.0444C33.9768 69.7433 33.8075 70.3106 33.7161 70.7396C33.6247 71.1686 33.5976 71.4973 33.6348 71.7187C33.6721 71.9436 33.7161 72.0923 33.7736 72.1685C33.7906 72.2065 33.838 72.2584 33.9091 72.3241C33.9836 72.3899 34.136 72.421 34.3764 72.421C34.6879 72.421 35.0672 72.3138 35.5141 72.0993C35.9611 71.8848 36.4521 71.5803 36.9803 71.1894C37.4205 70.8538 37.8607 70.4732 38.3111 70.0546C38.7581 69.6326 39.1475 69.2174 39.476 68.8092C39.5674 68.7157 39.6757 68.6604 39.8044 68.6396C39.9331 68.6223 40.0516 68.6569 40.16 68.7503C40.2514 68.8438 40.3056 68.9545 40.3259 69.0859C40.3428 69.2174 40.309 69.3385 40.2175 69.4492C39.8518 69.8782 39.4353 70.3141 38.9714 70.7535C38.5041 71.1928 38.0267 71.5976 37.5323 71.9713C36.2896 72.9227 35.2365 73.4001 34.3798 73.4001C33.9599 73.4001 33.6382 73.3205 33.4215 73.1614C33.2014 73.0022 33.0456 72.8396 32.9542 72.6701C32.6054 72.1096 32.5986 71.2136 32.9271 69.9785C33.2014 68.9337 33.7398 67.5983 34.5457 65.9723C34.803 65.4672 35.0841 64.9205 35.3956 64.3324C35.7071 63.7443 36.0458 63.1423 36.4115 62.5265C36.1541 62.5438 35.9205 62.5576 35.7105 62.568C35.5006 62.5784 35.3211 62.5818 35.1755 62.5818C34.9927 62.5991 34.8267 62.6095 34.6811 62.6095H34.654C34.3628 62.6095 34.1969 62.4504 34.1597 62.1321C34.1597 61.9833 34.2003 61.8623 34.2816 61.7688C34.3628 61.6754 34.478 61.627 34.6236 61.627C34.6608 61.627 34.9012 61.6166 35.3516 61.5993C35.7986 61.582 36.3437 61.5613 36.9837 61.544C37.3122 60.9835 37.6271 60.4507 37.9285 59.9456C38.2298 59.4405 38.494 58.9942 38.7242 58.5998C38.9511 58.2089 39.2118 57.7799 39.5064 57.3094C39.5809 57.1987 39.6791 57.1226 39.8078 57.0845C39.9365 57.0464 40.055 57.0672 40.1633 57.1399C40.4376 57.3267 40.4918 57.5619 40.3293 57.8422C40.0719 58.2331 39.845 58.5998 39.6453 58.9354C39.4455 59.271 39.2118 59.6585 38.9443 60.0978C38.6802 60.5372 38.3992 61.0077 38.1079 61.5128C38.582 61.5128 39.0459 61.5128 39.4929 61.5128C39.9331 61.5232 40.3225 61.5405 40.651 61.5786Z" fill="#767676"/>
<path d="M48.9864 68.7538C49.0778 68.8472 49.132 68.9579 49.1523 69.0893C49.1692 69.2208 49.1354 69.3419 49.0439 69.4526C49.0067 69.4906 48.9627 69.5356 48.9085 69.591C48.8543 69.6463 48.8069 69.7017 48.773 69.7605C47.9333 70.8053 47.1646 71.6771 46.4704 72.3655C45.7763 73.0574 45.1363 73.4034 44.5505 73.4034C44.0392 73.4034 43.6633 73.1993 43.4263 72.7876C43.1892 72.3378 43.1892 71.6875 43.4263 70.826C43.6633 69.9854 44.1746 68.8645 44.9636 67.4634C45.1092 67.2004 45.1194 66.7784 44.9907 66.1903C44.862 65.6021 44.608 64.9068 44.222 64.1042C43.7276 64.8134 43.1554 65.6091 42.5086 66.4843C41.8585 67.363 41.1067 68.3421 40.2466 69.4249C40.1552 69.5356 40.0469 69.6014 39.9182 69.6221C39.7895 69.6394 39.6812 69.6048 39.5897 69.5114C39.4814 69.418 39.417 69.3073 39.3967 69.1758C39.3798 69.0444 39.4137 68.9233 39.5051 68.8126C41.3336 66.4774 42.7321 64.592 43.7006 63.1528C43.5346 62.7999 43.4906 62.3744 43.5651 61.8797C43.6362 61.385 43.7209 60.9802 43.8123 60.6619C43.8495 60.5685 43.9003 60.4232 43.9647 60.226C44.029 60.0288 44.117 59.8213 44.2254 59.5964C44.3338 59.3715 44.4591 59.1467 44.5945 58.9252C44.7333 58.7004 44.8925 58.5136 45.0753 58.3648C45.2751 58.1953 45.4851 58.1088 45.7052 58.0984C45.9253 58.0881 46.1251 58.1676 46.3079 58.3371C46.6905 58.6727 46.7752 59.2262 46.5551 59.9908C46.3553 60.5893 45.9795 61.3469 45.4309 62.2602C45.3395 62.409 45.2446 62.5647 45.1431 62.7238C45.0415 62.883 44.9365 63.0455 44.8281 63.2151C46.0167 65.4395 46.335 67.024 45.7864 67.9788C45.3124 68.8195 44.9602 69.5114 44.7299 70.0511C44.4997 70.5942 44.3507 71.0267 44.2762 71.3553C44.2017 71.684 44.1746 71.9158 44.1949 72.0542C44.2119 72.196 44.2322 72.2825 44.2491 72.3205C44.266 72.3378 44.2931 72.3621 44.3304 72.3897C44.3676 72.4174 44.4387 72.4313 44.5505 72.4313C44.6419 72.4313 44.8078 72.369 45.0449 72.2479C45.2819 72.1268 45.6205 71.8431 46.0607 71.3934C46.4095 71.0751 46.7447 70.7153 47.0766 70.314C47.405 69.9127 47.7267 69.5252 48.0349 69.1516C48.0721 69.0963 48.1161 69.0409 48.1703 68.9821C48.2245 68.9267 48.2719 68.8714 48.3058 68.8126C48.3972 68.7192 48.5055 68.6638 48.6342 68.6431C48.7595 68.6223 48.878 68.6604 48.9864 68.7538ZM44.5437 61.8589C44.5606 61.8209 44.5742 61.8001 44.5843 61.7897C44.5945 61.7794 44.608 61.7586 44.625 61.7205C44.9162 61.2362 45.1363 60.8349 45.2819 60.5166C45.4275 60.1984 45.5392 59.9389 45.6104 59.7313C45.6849 59.5272 45.7187 59.3785 45.7187 59.2816C45.7187 59.1882 45.7086 59.1224 45.6916 59.0844C45.6171 59.1397 45.5122 59.2608 45.3767 59.4476C45.2379 59.6345 45.099 59.9147 44.95 60.2883C44.8417 60.5685 44.7537 60.8453 44.6893 61.1151C44.6318 61.3884 44.581 61.6341 44.5437 61.8589Z" fill="#767676"/>
<path d="M56.3384 68.8922C56.1014 69.3212 55.8 69.7986 55.4343 70.321C55.0686 70.8434 54.6487 71.345 54.1713 71.819C53.6972 72.2964 53.1689 72.6908 52.5933 73.0091C52.0176 73.3274 51.4014 73.4865 50.7411 73.4865C50.0841 73.4865 49.5762 73.355 49.2173 73.0956C48.8617 72.8327 48.601 72.5628 48.4351 72.2826C48.0321 71.5907 47.9305 70.6947 48.1337 69.5911C48.3335 68.5463 48.7635 67.4254 49.4238 66.2284C49.6812 65.7786 50.0266 65.2493 50.4668 64.6301C50.907 64.0143 51.4183 63.4158 52.0041 62.838C52.2242 62.6132 52.4748 62.3848 52.7592 62.153C53.0437 61.9212 53.3349 61.7102 53.6362 61.5234C53.9376 61.3366 54.2491 61.1844 54.5674 61.0598C54.8857 60.9387 55.2041 60.8765 55.5122 60.8765C55.6578 60.8765 55.7763 60.9249 55.8677 61.0183C55.9592 61.1117 56.0032 61.2328 56.0032 61.3816C56.0032 61.5303 55.9592 61.648 55.8677 61.731C55.7763 61.814 55.6578 61.8555 55.5122 61.8555C55.1465 61.8555 54.7164 62.0008 54.2221 62.2914C53.7277 62.582 53.2164 62.9972 52.6847 63.5369C52.1362 64.08 51.6519 64.6404 51.2321 65.2182C50.8122 65.7959 50.4837 66.2941 50.2433 66.7023C49.6405 67.7852 49.2545 68.8023 49.092 69.7571C48.9261 70.5978 48.9904 71.2689 49.285 71.774C49.522 72.2618 50.0063 72.504 50.7377 72.504C51.1203 72.504 51.486 72.4244 51.8348 72.2653C52.1836 72.1061 52.5154 71.9055 52.8371 71.6633C53.1554 71.4212 53.4534 71.1513 53.7277 70.8503C54.0019 70.5528 54.2491 70.2622 54.4692 69.982C54.6148 69.7952 54.7435 69.6118 54.8519 69.4354C54.9602 69.2589 55.072 69.086 55.1803 68.9164C54.7977 68.8784 54.4896 68.785 54.2627 68.6362C54.0324 68.4875 53.8563 68.3387 53.7277 68.1865C53.345 67.7367 53.152 67.159 53.152 66.4498C53.152 66.0208 53.2164 65.5814 53.345 65.1317C53.4737 64.682 53.6633 64.2737 53.9207 63.9001C54.5234 63.0041 55.2108 62.5544 55.9761 62.5544C56.5619 62.5544 57.0089 62.8069 57.3204 63.312C57.6116 63.779 57.7369 64.3879 57.6895 65.1317C57.6421 65.879 57.4017 66.7196 56.9615 67.6537C56.8159 67.9512 56.6974 68.19 56.6059 68.3698C56.5213 68.5532 56.4299 68.7262 56.3384 68.8922ZM55.9829 63.5403C55.7628 63.5403 55.5427 63.6233 55.3259 63.7929C55.1058 63.9624 54.9061 64.1838 54.7232 64.464C54.5404 64.7442 54.3948 65.0556 54.283 65.4016C54.1746 65.7475 54.1171 66.0969 54.1171 66.4532C54.1171 66.602 54.134 66.7819 54.1713 66.986C54.2085 67.1901 54.2999 67.377 54.4455 67.5465C54.6826 67.8267 55.0652 67.9685 55.5968 67.9685H55.7357C55.8271 67.7817 55.9016 67.6364 55.9558 67.5326C56.01 67.4288 56.0472 67.37 56.0641 67.3493C56.3215 66.7715 56.4942 66.2768 56.5856 65.8651C56.677 65.4534 56.7211 65.1075 56.7211 64.8273C56.7211 64.547 56.6974 64.3291 56.6533 64.17C56.6093 64.0108 56.5653 63.9036 56.5314 63.8482C56.3824 63.6441 56.203 63.5403 55.9829 63.5403Z" fill="#767676"/>
<path d="M59.4103 74.9155C58.8787 74.9155 58.4791 74.8047 58.2048 74.5799C57.9305 74.355 57.7206 74.1301 57.575 73.9087C57.1551 73.1614 57.128 72.0682 57.4937 70.629C57.6596 69.9578 57.9136 69.2244 58.2624 68.4287C58.6112 67.6365 59.031 66.8096 59.5254 65.9482C59.7625 65.5365 60.0503 65.0383 60.3889 64.4502C60.7275 63.862 61.0797 63.2497 61.4454 62.6131C61.8111 61.98 62.1768 61.3469 62.5425 60.7207C62.9082 60.0945 63.2333 59.5306 63.5143 59.0255C63.7988 58.5204 64.0324 58.1156 64.2153 57.8077C64.3981 57.4998 64.4896 57.3372 64.4896 57.3165C64.6555 57.0535 64.8722 56.9982 65.1465 57.1469C65.4038 57.3165 65.458 57.5379 65.3124 57.8181C65.3124 57.8354 65.221 58.0015 65.0381 58.3094C64.8553 58.6173 64.6216 59.0186 64.3372 59.5133C64.0528 60.008 63.7277 60.5754 63.3654 61.2085C62.9997 61.8451 62.6339 62.4782 62.2682 63.1148C61.9025 63.7513 61.5504 64.3602 61.2117 64.9518C60.8731 65.5399 60.5853 66.0416 60.3483 66.4498C59.8742 67.2732 59.4712 68.0551 59.1428 68.8024C58.8143 69.5496 58.5671 70.2415 58.4012 70.8747C58.11 72.0336 58.1168 72.8847 58.4283 73.4244C58.6112 73.76 58.9396 73.9295 59.4171 73.9295C59.7625 73.9295 60.0875 73.8188 60.3889 73.5939C60.6903 73.369 60.9612 73.0992 61.1982 72.7809C61.4352 72.4626 61.6418 72.1374 61.8145 71.8018C61.9872 71.4662 62.1294 71.186 62.2411 70.9611L62.2953 70.9058C62.424 70.6255 62.6339 70.5494 62.9252 70.6809C63.0538 70.7363 63.1351 70.8297 63.1724 70.9611C63.2096 71.0926 63.1994 71.2137 63.1453 71.3244L63.1182 71.4074C62.9895 71.6704 62.8168 71.9956 62.5967 72.3865C62.3766 72.7774 62.1159 73.1615 61.8145 73.5351C61.5131 73.9087 61.161 74.2305 60.758 74.5003C60.3517 74.7805 59.9047 74.9155 59.4103 74.9155Z" fill="#767676"/>
<path d="M75.4549 61.6654C74.798 62.731 74.2155 63.7792 73.7144 64.8171C73.2098 65.855 72.8137 66.8479 72.5224 67.8028C72.2312 68.7542 72.0653 69.5948 72.0281 70.3248C71.9908 71.0548 72.0924 71.6326 72.3294 72.0616C72.6207 72.6393 73.1895 72.9299 74.0293 72.9299C75.2551 72.9299 76.6908 71.9197 78.3365 69.9028C79.051 69.0067 79.7079 68.083 80.3107 67.1281C80.9134 66.1767 81.4247 65.343 81.848 64.6337C81.9564 64.4469 82.058 64.2739 82.1494 64.1148C82.2408 63.9556 82.3322 63.8104 82.4237 63.6789C82.4237 63.6616 82.427 63.6512 82.4372 63.6512C82.4474 63.6512 82.4507 63.6408 82.4507 63.6235C82.7995 62.987 83.1314 62.3781 83.4531 61.7865C83.7714 61.1983 84.0795 60.6621 84.3707 60.1743C84.4249 60.0428 84.5163 59.9598 84.645 59.9217C84.7737 59.8837 84.9024 59.9044 85.0276 59.9771C85.136 60.0532 85.2105 60.1535 85.2477 60.285C85.285 60.4164 85.2647 60.5375 85.1936 60.6483C84.7906 61.3402 84.3673 62.1047 83.917 62.9454C83.47 63.7861 83.0129 64.6441 82.5456 65.5229C82.0783 66.4016 81.6177 67.2803 81.1606 68.1556C80.7035 69.0344 80.2768 69.8543 79.884 70.6224C79.4912 71.3869 79.1424 72.0754 78.8411 72.6808C78.5397 73.2897 78.3061 73.7499 78.1401 74.0681C78.3399 73.9574 78.5465 73.8398 78.7564 73.7187C78.9664 73.5976 79.1831 73.4627 79.3998 73.314C80.094 72.8642 80.8626 72.2864 81.7024 71.5772C82.5422 70.868 83.3853 69.9443 84.2251 68.8026C84.3165 68.6919 84.4249 68.6262 84.5536 68.6054C84.6822 68.5881 84.8008 68.6158 84.9091 68.6884C85.0006 68.7818 85.0615 68.8925 85.0886 69.024C85.1157 69.1555 85.0852 69.2766 84.9938 69.3873C84.0964 70.5843 83.2059 71.5495 82.3187 72.2864C81.4315 73.0233 80.6324 73.6357 79.9179 74.1235C79.4438 74.4418 78.9901 74.7151 78.56 74.9504C78.13 75.1856 77.7236 75.3759 77.341 75.5247C76.7552 76.4761 76.1524 77.251 75.5294 77.8495C74.6524 78.6902 73.8735 79.1192 73.1997 79.14H73.1184C72.5868 79.14 72.2041 78.9359 71.9671 78.5242C71.7843 78.2439 71.747 77.9083 71.8588 77.5139C71.9671 77.1403 72.2008 76.784 72.5597 76.4484C72.9152 76.1128 73.3487 75.8499 73.8634 75.663C73.9717 75.625 74.1004 75.5835 74.246 75.5385C74.3916 75.4901 74.5474 75.4416 74.7133 75.3828C74.9707 75.3067 75.2619 75.2202 75.5903 75.1164C75.9188 75.0126 76.2845 74.8881 76.6875 74.7393C76.7416 74.6459 76.8026 74.5421 76.8669 74.4314C76.9313 74.3207 76.9888 74.2065 77.0464 74.0958C77.0836 74.0578 77.2394 73.7637 77.5137 73.2136C77.788 72.6636 78.1367 71.9682 78.5566 71.1275C77.9336 71.8367 77.3139 72.4248 76.6908 72.8919C75.7596 73.563 74.8725 73.9021 74.0293 73.9021C73.2776 73.9021 72.7087 73.7533 72.3159 73.4523C71.9231 73.1548 71.6454 72.8469 71.4795 72.5286C70.8768 71.4077 70.914 69.7367 71.5879 67.5121C71.8994 66.5227 72.3159 65.4814 72.834 64.3881C73.3555 63.2949 73.9616 62.2085 74.6591 61.1222C75.0993 60.4303 75.6479 59.6934 76.3048 58.908C76.1592 58.7212 76.0305 58.5344 75.9222 58.3476C75.4481 57.4135 75.3364 56.2753 75.5937 54.9295C75.7021 54.331 75.8849 53.7255 76.1423 53.1097C76.3996 52.4939 76.7078 51.9127 77.0735 51.373C77.2733 51.1101 77.5035 51.0651 77.7575 51.2311C77.8659 51.3245 77.937 51.4353 77.9641 51.5667C77.9911 51.6982 77.9607 51.8193 77.8692 51.93C77.5408 52.4143 77.2563 52.9333 77.0193 53.4868C76.7823 54.0369 76.6163 54.5835 76.5249 55.1267C76.4335 55.6698 76.4064 56.1715 76.4437 56.6385C76.4809 57.1056 76.5994 57.5242 76.7992 57.8978C76.8161 57.9359 76.8398 57.9809 76.8669 58.0397C76.894 58.095 76.9279 58.1435 76.9617 58.1815C77.8015 57.2682 78.6887 56.4171 79.6233 55.6318C79.9145 55.3896 80.2734 55.1128 80.6933 54.8049C81.1132 54.497 81.5568 54.203 82.0241 53.9227C82.4914 53.6425 82.9621 53.4107 83.4361 53.2239C83.9102 53.0371 84.3606 52.9333 84.7804 52.916C85.2003 52.8779 85.5288 52.9333 85.7692 53.0855C86.0062 53.2342 86.1789 53.383 86.2907 53.5353C86.4905 53.7982 86.5819 54.1234 86.565 54.5143C86.548 54.9053 86.4295 55.3446 86.2094 55.8324C85.9521 56.3548 85.6067 56.8738 85.1665 57.3893C84.7263 57.9048 84.2251 58.3649 83.6596 58.7766C83.1856 59.1122 82.5896 59.4443 81.8785 59.7695C81.164 60.0982 80.3412 60.2608 79.4099 60.2608C78.604 60.2608 77.8828 60.0843 77.2428 59.728C77.2055 59.7107 77.1683 59.6899 77.1344 59.6726C77.0972 59.6553 77.0599 59.6277 77.0261 59.5896C76.4335 60.2642 75.912 60.9527 75.4549 61.6654ZM74.8792 77.1576C75.2077 76.822 75.5091 76.476 75.7833 76.1197C75.6377 76.1578 75.4955 76.1958 75.3567 76.2304C75.2178 76.2685 75.0858 76.3065 74.9605 76.3411C74.8149 76.3792 74.6727 76.4172 74.5338 76.4518C74.395 76.4899 74.2833 76.528 74.1918 76.5626C73.7889 76.7321 73.4638 76.9327 73.2166 77.1645C72.9694 77.3963 72.8204 77.6074 72.7629 77.7942C72.7459 77.9049 72.7459 77.9706 72.7629 77.9914C72.8001 78.0294 72.8441 78.0709 72.8983 78.1159C72.9525 78.1609 73.0371 78.1747 73.1455 78.1574C73.6094 78.1298 74.1851 77.7942 74.8792 77.1576ZM80.226 56.424C79.3118 57.154 78.4618 57.9636 77.6762 58.8631C78.1164 59.1433 78.6921 59.2817 79.4032 59.2817C80.0973 59.2817 80.761 59.1571 81.3909 58.9046C82.0207 58.652 82.5964 58.3337 83.1178 57.9532C83.6393 57.5692 84.0863 57.1506 84.4621 56.6939C84.838 56.2372 85.1258 55.8013 85.3256 55.3896C85.4915 55.0713 85.583 54.8049 85.5999 54.5904C85.6168 54.3759 85.5999 54.2306 85.5457 54.1545C85.5085 54.1165 85.4441 54.0611 85.3527 53.985C85.2613 53.9089 85.0886 53.8812 84.8312 53.902C84.2996 53.9193 83.6325 54.1511 82.83 54.587C82.0275 55.0263 81.1606 55.6387 80.226 56.424Z" fill="#767676"/>
<path d="M96.0225 68.754C96.1139 68.8474 96.1681 68.9581 96.1884 69.0896C96.2053 69.221 96.1715 69.3421 96.08 69.4528C96.0428 69.4909 96.0022 69.5359 95.9581 69.5912C95.9107 69.6466 95.8633 69.7019 95.8058 69.7607C94.966 70.8055 94.1973 71.6774 93.5031 72.3658C92.809 73.0578 92.169 73.4037 91.5832 73.4037C91.1633 73.4037 90.8484 73.3242 90.6384 73.165C90.4285 73.0059 90.2761 72.8433 90.1847 72.6738C89.9849 72.3001 89.9104 71.8434 89.9646 71.3003C88.7015 72.7948 87.4859 73.5421 86.3176 73.5421C85.6776 73.5421 85.1934 73.4106 84.865 73.1512C84.5365 72.8882 84.2995 72.6288 84.1505 72.3658C83.7678 71.6566 83.7035 70.7675 83.9575 69.7054C84.0658 69.183 84.2419 68.6467 84.4789 68.0932C84.716 67.5431 85.0106 66.9861 85.3559 66.4257C86.3447 64.855 87.4588 63.613 88.7015 62.6996C89.2501 62.3087 89.7817 62.0043 90.293 61.7898C90.8043 61.5753 91.2716 61.468 91.6915 61.468C92.1656 61.468 92.5381 61.551 92.8022 61.7206C93.0663 61.8901 93.2627 62.0665 93.3914 62.2533C93.5912 62.5163 93.7199 62.8242 93.774 63.1771C93.9196 62.9522 94.0382 62.755 94.1296 62.5889C94.221 62.4194 94.3124 62.2707 94.4039 62.1392C94.4784 61.9904 94.5596 61.859 94.6511 61.7482C94.7256 61.6375 94.8238 61.5649 94.9524 61.5372C95.0811 61.5095 95.1996 61.5337 95.308 61.6064C95.4163 61.6825 95.4908 61.7828 95.5281 61.9143C95.5653 62.0458 95.5383 62.1669 95.4468 62.2776C95.4468 62.2949 95.2098 62.6824 94.7323 63.44C94.2583 64.1977 93.6623 65.2009 92.9512 66.4533C92.4771 67.294 92.0911 68.0378 91.7999 68.6813C91.5087 69.3248 91.292 69.8853 91.1565 70.3627C91.0177 70.8401 90.9398 71.2276 90.9229 71.5252C90.9059 71.8227 90.9398 72.0406 91.0312 72.1686C91.0482 72.2067 91.0888 72.2586 91.1531 72.3243C91.2175 72.3901 91.3597 72.4212 91.5798 72.4212C91.6712 72.4212 91.8371 72.3589 92.0742 72.2378C92.3112 72.1168 92.66 71.8331 93.1171 71.3833C93.4456 71.065 93.774 70.7052 94.1059 70.3039C94.4344 69.9026 94.756 69.5151 95.0642 69.1415C95.1184 69.0861 95.1692 69.0308 95.2166 68.972C95.2606 68.9166 95.3046 68.8612 95.3385 68.8024C95.4299 68.709 95.5382 68.6537 95.6669 68.6329C95.7956 68.6225 95.9141 68.6606 96.0225 68.754ZM89.416 70.4631C89.8731 69.9026 90.2388 69.394 90.5131 68.9373C90.7874 68.4807 90.933 68.242 90.9533 68.2212C90.9533 68.2039 90.9567 68.1935 90.9669 68.1935C90.977 68.1935 90.9804 68.1832 90.9804 68.1659C91.2547 67.5327 91.6373 66.7924 92.1317 65.9517C92.2232 65.7822 92.318 65.6161 92.4196 65.4466C92.5211 65.2771 92.616 65.1214 92.7074 64.9692V64.9138C92.7243 64.8204 92.7514 64.6855 92.7887 64.509C92.8259 64.3326 92.8462 64.1458 92.8564 63.9486C92.8665 63.7514 92.8564 63.5576 92.8293 63.3604C92.8022 63.1632 92.7345 62.9902 92.6227 62.8415C92.423 62.5785 92.1114 62.4505 91.6915 62.4505C91.4342 62.4505 91.0956 62.5301 90.6757 62.6893C90.2558 62.8484 89.7986 63.1079 89.3043 63.4746C88.8099 63.8379 88.2884 64.3049 87.7398 64.8757C87.1913 65.4466 86.6596 66.142 86.1483 66.9619C85.5083 67.9894 85.0884 68.9685 84.8853 69.9026C84.7193 70.7813 84.7566 71.4421 84.9936 71.8919C85.2137 72.3416 85.6506 72.5631 86.3109 72.5631C87.2285 72.5631 88.2613 71.8642 89.416 70.4631Z" fill="#767676"/>
<path d="M104.826 68.7538C104.917 68.8472 104.972 68.9579 104.992 69.0893C105.009 69.2208 104.975 69.3419 104.884 69.4526C104.846 69.4906 104.802 69.5356 104.745 69.591C104.691 69.6463 104.643 69.7017 104.609 69.7605C103.77 70.8053 103.001 71.6771 102.307 72.3655C101.613 73.0574 100.973 73.4034 100.387 73.4034C99.8754 73.4034 99.4995 73.1993 99.2625 72.7876C99.0255 72.3378 99.0255 71.6875 99.2625 70.826C99.4995 69.9854 100.011 68.8645 100.8 67.4634C100.945 67.2004 100.956 66.7784 100.827 66.1903C100.698 65.6021 100.444 64.9068 100.058 64.1042C99.5639 64.8134 98.9916 65.6091 98.3449 66.4843C97.6947 67.363 96.943 68.3421 96.0829 69.4249C95.9915 69.5356 95.8831 69.6014 95.7544 69.6221C95.6258 69.6394 95.5174 69.6048 95.426 69.5114C95.3176 69.418 95.2533 69.3073 95.233 69.1758C95.216 69.0444 95.2499 68.9233 95.3413 68.8126C97.1699 66.4774 98.5683 64.592 99.5368 63.1528C99.3709 62.7999 99.3268 62.3744 99.398 61.8797C99.4725 61.385 99.5537 60.9802 99.6452 60.6619C99.6824 60.5685 99.7332 60.4232 99.7975 60.226C99.8619 60.0288 99.9499 59.8213 100.058 59.5964C100.167 59.3715 100.292 59.1467 100.427 58.9252C100.566 58.7004 100.725 58.5136 100.908 58.3648C101.108 58.1953 101.321 58.1088 101.538 58.0984C101.758 58.0881 101.958 58.1676 102.141 58.3371C102.523 58.6727 102.608 59.2262 102.388 59.9908C102.188 60.5893 101.812 61.3469 101.264 62.2602C101.172 62.409 101.078 62.5647 100.976 62.7238C100.874 62.883 100.769 63.0455 100.661 63.2151C101.85 65.4395 102.168 67.024 101.619 67.9788C101.145 68.8195 100.793 69.5114 100.563 70.0511C100.333 70.5942 100.184 71.0267 100.109 71.3553C100.035 71.684 100.007 71.9158 100.028 72.0542C100.045 72.196 100.065 72.2825 100.082 72.3205C100.099 72.3378 100.126 72.3621 100.163 72.3897C100.2 72.4174 100.272 72.4313 100.383 72.4313C100.475 72.4313 100.641 72.369 100.878 72.2479C101.115 72.1268 101.453 71.8431 101.894 71.3934C102.239 71.0751 102.578 70.7153 102.909 70.314C103.238 69.9127 103.56 69.5252 103.868 69.1516C103.905 69.0963 103.949 69.0409 104.007 68.9821C104.061 68.9267 104.108 68.8714 104.145 68.8126C104.237 68.7192 104.345 68.6638 104.474 68.6431C104.599 68.6223 104.718 68.6604 104.826 68.7538ZM100.383 61.8589C100.4 61.8209 100.414 61.8001 100.424 61.7897C100.434 61.7794 100.448 61.7586 100.465 61.7205C100.756 61.2362 100.976 60.8349 101.122 60.5166C101.267 60.1984 101.379 59.9389 101.45 59.7313C101.524 59.5272 101.558 59.3785 101.558 59.2816C101.558 59.1882 101.548 59.1224 101.531 59.0844C101.457 59.1397 101.352 59.2608 101.216 59.4476C101.078 59.6345 100.939 59.9147 100.79 60.2883C100.681 60.5685 100.593 60.8453 100.529 61.1151C100.471 61.3884 100.421 61.6341 100.383 61.8589Z" fill="#767676"/>
<path d="M115.932 68.754C116.024 68.8474 116.078 68.9581 116.098 69.0896C116.115 69.221 116.081 69.3421 115.99 69.4528C115.953 69.4909 115.912 69.5359 115.868 69.5912C115.824 69.6466 115.773 69.7019 115.716 69.7607C114.876 70.8055 114.107 71.6774 113.413 72.3658C112.719 73.0578 112.079 73.4037 111.493 73.4037C111.073 73.4037 110.758 73.3242 110.548 73.165C110.338 73.0059 110.186 72.8433 110.094 72.6738C109.895 72.3001 109.82 71.8434 109.874 71.3003C108.611 72.7948 107.396 73.5421 106.227 73.5421C105.587 73.5421 105.103 73.4106 104.775 73.1512C104.446 72.8882 104.209 72.6288 104.06 72.3658C103.678 71.6566 103.613 70.7675 103.867 69.7054C103.976 69.183 104.152 68.6467 104.389 68.0932C104.626 67.5431 104.92 66.9861 105.266 66.4257C106.255 64.855 107.369 63.613 108.611 62.6996C109.16 62.3087 109.692 62.0043 110.203 61.7898C110.714 61.5753 111.181 61.468 111.601 61.468C112.075 61.468 112.448 61.551 112.712 61.7206C112.976 61.8901 113.173 62.0665 113.301 62.2533C113.501 62.5163 113.63 62.8242 113.684 63.1771C113.829 62.9522 113.948 62.755 114.039 62.5889C114.131 62.4194 114.222 62.2707 114.314 62.1392C114.388 61.9904 114.469 61.859 114.561 61.7482C114.635 61.6375 114.734 61.5649 114.862 61.5372C114.991 61.5095 115.109 61.5337 115.218 61.6064C115.326 61.6825 115.401 61.7828 115.438 61.9143C115.475 62.0458 115.448 62.1669 115.357 62.2776C115.357 62.2949 115.12 62.6824 114.642 63.44C114.168 64.1977 113.572 65.2009 112.861 66.4533C112.387 67.294 112.001 68.0378 111.71 68.6813C111.418 69.3248 111.202 69.8853 111.066 70.3627C110.931 70.8401 110.85 71.2276 110.833 71.5252C110.816 71.8227 110.85 72.0406 110.941 72.1686C110.958 72.2067 110.999 72.2586 111.063 72.3243C111.127 72.3901 111.269 72.4212 111.49 72.4212C111.581 72.4212 111.747 72.3589 111.984 72.2378C112.221 72.1168 112.57 71.8331 113.027 71.3833C113.355 71.065 113.684 70.7052 114.016 70.3039C114.344 69.9026 114.666 69.5151 114.974 69.1415C115.028 69.0861 115.079 69.0308 115.126 68.972C115.17 68.9166 115.214 68.8612 115.248 68.8024C115.34 68.709 115.448 68.6537 115.577 68.6329C115.705 68.6225 115.824 68.6606 115.932 68.754ZM109.322 70.4631C109.78 69.9026 110.145 69.394 110.42 68.9373C110.694 68.4807 110.839 68.242 110.86 68.2212C110.86 68.2039 110.863 68.1935 110.873 68.1935C110.883 68.1935 110.887 68.1832 110.887 68.1659C111.161 67.5327 111.544 66.7924 112.038 65.9517C112.13 65.7822 112.224 65.6161 112.326 65.4466C112.428 65.2771 112.522 65.1214 112.614 64.9692V64.9138C112.631 64.8204 112.658 64.6855 112.695 64.509C112.732 64.3326 112.753 64.1458 112.763 63.9486C112.773 63.7514 112.763 63.5576 112.736 63.3604C112.709 63.1632 112.641 62.9902 112.529 62.8415C112.329 62.5785 112.018 62.4505 111.598 62.4505C111.341 62.4505 111.002 62.5301 110.582 62.6893C110.162 62.8484 109.705 63.1079 109.211 63.4746C108.716 63.8379 108.195 64.3049 107.646 64.8757C107.098 65.4466 106.566 66.142 106.055 66.9619C105.415 67.9894 104.995 68.9685 104.792 69.9026C104.626 70.7813 104.663 71.4421 104.9 71.8919C105.12 72.3416 105.557 72.5631 106.217 72.5631C107.138 72.5631 108.171 71.8642 109.322 70.4631Z" fill="#767676"/>
<path d="M127.285 68.7538C127.393 68.8472 127.458 68.9579 127.478 69.0894C127.495 69.2209 127.461 69.3419 127.37 69.4526C127.332 69.4907 127.302 69.5288 127.275 69.5634C127.248 69.6014 127.214 69.6395 127.18 69.6741C126.997 69.8989 126.764 70.1792 126.479 70.5147C126.195 70.8503 125.866 71.1998 125.49 71.5665C125.115 71.9297 124.708 72.2895 124.271 72.6459C123.831 73.0022 123.357 73.2997 122.846 73.5419C122.497 73.7114 122.141 73.8602 121.776 73.9917C121.41 74.1231 121.044 74.2546 120.679 74.3826C120.184 75.2786 119.646 76.0536 119.06 76.7074C118.22 77.6415 117.431 78.1536 116.7 78.247C116.663 78.247 116.625 78.2504 116.591 78.2608C116.554 78.2712 116.517 78.2746 116.483 78.2746C116.009 78.2746 115.633 78.0878 115.359 77.7142C115.139 77.472 115.074 77.126 115.166 76.6763C115.257 76.2646 115.477 75.8771 115.823 75.5139C116.172 75.1506 116.608 74.8358 117.14 74.5763C117.485 74.4276 117.861 74.2857 118.264 74.1542C118.667 74.0228 119.077 73.8844 119.497 73.7356C119.588 73.6976 119.676 73.6699 119.758 73.6526C119.839 73.6353 119.927 73.6042 120.018 73.5696C120.093 73.4208 120.161 73.2721 120.225 73.1198C120.289 72.9711 120.357 72.8223 120.431 72.6701C120.448 72.632 120.496 72.5144 120.567 72.3207C120.641 72.1235 120.75 71.8571 120.895 71.5215C119.578 72.8673 118.39 73.5385 117.33 73.5385C116.69 73.5385 116.205 73.407 115.877 73.1475C115.549 72.8846 115.311 72.6251 115.162 72.3622C114.78 71.653 114.716 70.7638 114.969 69.7017C115.078 69.1793 115.254 68.6431 115.491 68.0896C115.728 67.5395 116.023 66.9825 116.368 66.422C117.357 64.8514 118.471 63.6094 119.714 62.6961C120.262 62.3051 120.79 62.0007 121.305 61.7862C121.816 61.5717 122.284 61.4644 122.704 61.4644C123.178 61.4644 123.55 61.5475 123.814 61.717C124.078 61.8865 124.275 62.063 124.403 62.2498C124.512 62.3812 124.613 62.5577 124.705 62.7825C124.796 62.5784 124.888 62.3812 124.979 62.1944C125.071 62.0076 125.162 61.8104 125.253 61.6063C125.399 61.326 125.619 61.2499 125.91 61.3814C126.019 61.4368 126.097 61.5302 126.144 61.6616C126.188 61.7931 126.185 61.9142 126.13 62.0249C125.873 62.568 125.622 63.1043 125.375 63.6371C125.128 64.1698 124.877 64.7061 124.62 65.2492L124.593 65.3046C124.136 66.3321 123.706 67.3077 123.303 68.2314C122.9 69.1551 122.555 69.9785 122.26 70.6981C121.969 71.4177 121.735 71.9885 121.559 72.4072C121.386 72.8258 121.298 73.0472 121.298 73.0645C121.298 73.1025 121.288 73.1198 121.271 73.1198C121.471 73.0437 121.664 72.9711 121.847 72.8949C122.03 72.8188 122.213 72.7358 122.395 72.6424C122.853 72.4175 123.286 72.1477 123.699 71.8294C124.109 71.5111 124.488 71.179 124.837 70.833C125.182 70.4871 125.49 70.155 125.755 69.8401C126.019 69.5219 126.242 69.252 126.425 69.0271C126.462 68.9891 126.493 68.951 126.52 68.9164C126.547 68.8784 126.577 68.8438 126.615 68.8057C126.706 68.7123 126.814 68.6569 126.943 68.6362C127.085 68.6223 127.194 68.6604 127.285 68.7538ZM120.621 70.404C121.078 69.8816 121.461 69.4008 121.772 68.9614C122.084 68.522 122.257 68.2556 122.294 68.1622C122.514 67.6571 122.748 67.1312 122.995 66.5777C123.242 66.0276 123.493 65.4603 123.75 64.8825C123.767 64.7718 123.794 64.63 123.831 64.4639C123.868 64.2944 123.885 64.1145 123.885 63.9173C123.885 63.7201 123.872 63.5264 123.845 63.3292C123.818 63.132 123.75 62.9694 123.638 62.8379C123.438 62.575 123.127 62.4469 122.707 62.4469C122.45 62.4469 122.111 62.5265 121.691 62.6857C121.271 62.8448 120.814 63.1043 120.32 63.471C119.825 63.8343 119.304 64.3013 118.755 64.8721C118.207 65.443 117.675 66.1384 117.164 66.9583C116.524 67.9858 116.104 68.9649 115.901 69.8989C115.735 70.7777 115.772 71.4385 116.009 71.8882C116.229 72.338 116.666 72.5594 117.326 72.5594C117.783 72.5594 118.285 72.376 118.833 72.0128C119.388 71.653 119.981 71.1167 120.621 70.404ZM118.346 76.0363C118.511 75.8668 118.671 75.6799 118.826 75.4758C118.982 75.2717 119.131 75.0538 119.28 74.8323C118.623 75.0365 118.048 75.2544 117.553 75.4758C117.113 75.6799 116.771 75.9186 116.524 76.192C116.277 76.4618 116.134 76.7005 116.097 76.9081C116.08 77.0188 116.08 77.0845 116.097 77.1053C116.134 77.1607 116.189 77.2125 116.263 77.261C116.338 77.3059 116.446 77.3129 116.591 77.2748C117.103 77.216 117.689 76.8043 118.346 76.0363Z" fill="#767676"/>
<path d="M136.228 68.695C136.319 68.7884 136.37 68.8991 136.38 69.0306C136.391 69.1621 136.35 69.2728 136.259 69.3662C136.242 69.4042 136.038 69.6291 135.656 70.0373C135.273 70.449 134.758 70.9057 134.118 71.4108C132.344 72.7739 130.736 73.4554 129.293 73.4554C128.524 73.4554 127.945 73.3171 127.553 73.0368C127.16 72.7566 126.872 72.466 126.689 72.1685C126.34 71.5527 126.242 70.7812 126.388 69.8575C126.533 68.9337 126.926 67.9097 127.566 66.7888C128.46 65.1628 129.435 63.8377 130.488 62.8102C131.538 61.7827 132.53 61.1842 133.465 61.0182C134.179 60.9074 134.772 61.0458 135.246 61.4402C135.612 61.7585 135.812 62.1875 135.849 62.7306C135.866 63.2911 135.693 63.9138 135.327 64.5954C134.962 65.2769 134.43 65.9723 133.736 66.6815C132.967 67.4842 132.154 68.0723 131.294 68.4459C130.58 68.7642 129.896 68.9234 129.239 68.9234C128.91 68.9234 128.616 68.8957 128.362 68.8403C128.105 68.785 127.895 68.7192 127.732 68.6431C127.641 68.8853 127.563 69.1136 127.498 69.3281C127.434 69.5426 127.383 69.7537 127.346 69.9578C127.238 70.7051 127.299 71.2759 127.539 71.6668C127.83 72.21 128.416 72.4798 129.293 72.4798C130.041 72.4798 130.786 72.2896 131.528 71.9055C132.27 71.5215 132.937 71.0995 133.529 70.6324C134.122 70.1654 134.606 69.7364 134.982 69.342C135.358 68.951 135.544 68.7435 135.544 68.7262C135.635 68.6327 135.744 68.5808 135.872 68.5705C135.998 68.5601 136.116 68.6016 136.228 68.695ZM128.382 67.2662C128.345 67.3596 128.301 67.4426 128.247 67.5188C128.193 67.5949 128.145 67.6779 128.108 67.7713C128.254 67.8094 128.423 67.8474 128.616 67.882C128.809 67.9201 129.032 67.9374 129.286 67.9374C130.549 67.9201 131.809 67.2731 133.072 66.0034C133.658 65.4049 134.108 64.8237 134.43 64.2529C134.748 63.682 134.901 63.1942 134.884 62.7825C134.846 62.5404 134.765 62.3432 134.637 62.1944C134.379 61.9695 134.041 61.9038 133.621 61.9972C133.255 62.0526 132.862 62.2186 132.442 62.4885C132.022 62.7583 131.592 63.1112 131.152 63.5402C130.167 64.5124 129.242 65.7544 128.382 67.2662Z" fill="#767676"/>
<path d="M46.3223 93.2164C46.2614 93.2164 46.2004 93.1888 46.1598 93.1334C46.0921 93.04 46.109 92.9085 46.2004 92.8393C47.5346 91.8154 48.9263 90.6807 50.4568 89.3696C50.5449 89.297 50.6736 89.3074 50.7447 89.3973C50.8158 89.4872 50.8056 89.6187 50.7176 89.6913C49.1803 91.0059 47.7818 92.144 46.4442 93.1749C46.407 93.2026 46.3629 93.2164 46.3223 93.2164Z" fill="#767676"/>
<path d="M42.7496 96.1229C42.6887 96.1229 42.6311 96.0952 42.5905 96.0433C42.5194 95.9534 42.5363 95.8219 42.6243 95.7493L43.525 95.0159C43.6131 94.9433 43.7418 94.9571 43.8129 95.0505C43.884 95.1404 43.8704 95.2719 43.779 95.3446L42.8783 96.0779C42.8377 96.1091 42.7936 96.1229 42.7496 96.1229Z" fill="#767676"/>
<path d="M42.6376 90.1793C42.5428 90.1793 42.4582 90.1101 42.4378 90.0132C42.4141 89.899 42.4853 89.7883 42.597 89.7676C43.7822 89.5185 45.0419 89.2106 46.4505 88.83C46.5589 88.7989 46.6706 88.868 46.7011 88.9788C46.7316 89.0895 46.6639 89.2037 46.5555 89.2348C45.1434 89.6154 43.8736 89.9267 42.6817 90.1758C42.6647 90.1793 42.6512 90.1793 42.6376 90.1793Z" fill="#767676"/>
<path d="M39.4034 90.9647C39.3119 90.9647 39.2273 90.899 39.2036 90.8056C39.1765 90.6949 39.2442 90.5808 39.356 90.5531L40.172 90.3559C40.2804 90.3317 40.3921 90.3975 40.4192 90.5116C40.4463 90.6223 40.3786 90.7364 40.2668 90.7641L39.4508 90.9612C39.4339 90.9647 39.4169 90.9647 39.4034 90.9647Z" fill="#767676"/>
<path d="M108.322 90.9057C108.308 90.9057 108.295 90.9057 108.281 90.9023C106.852 90.6185 105.583 90.3314 104.397 90.0269C104.289 89.9992 104.221 89.885 104.248 89.7743C104.275 89.6636 104.387 89.5944 104.496 89.6221C105.674 89.9266 106.94 90.2103 108.359 90.494C108.471 90.5147 108.542 90.6255 108.522 90.7397C108.505 90.8365 108.417 90.9057 108.322 90.9057Z" fill="#767676"/>
<path d="M102.021 89.4839C102.007 89.4839 101.99 89.4839 101.977 89.4805L101.161 89.2971C101.049 89.2728 100.981 89.1621 101.005 89.0479C101.029 88.9371 101.137 88.8645 101.249 88.8887L102.065 89.0721C102.177 89.0963 102.244 89.2071 102.221 89.3213C102.2 89.4182 102.116 89.4839 102.021 89.4839Z" fill="#767676"/>
<path d="M61.5928 91.8259C61.5589 91.8259 61.5217 91.8155 61.4912 91.7982C61.393 91.7394 61.3591 91.6114 61.4167 91.511L62.1921 90.1479C62.2497 90.0476 62.375 90.013 62.4732 90.0718C62.5714 90.1306 62.6052 90.2586 62.5476 90.359L61.7722 91.7221C61.7316 91.7878 61.6605 91.8259 61.5928 91.8259Z" fill="#767676"/>
<path d="M52.58 105.709C52.5428 105.709 52.5021 105.699 52.4683 105.675C52.3735 105.612 52.3498 105.481 52.4107 105.384L60.1989 93.376C60.2632 93.2791 60.3885 93.2549 60.4833 93.3171C60.5781 93.3794 60.6018 93.5109 60.5409 93.6078L52.7527 105.616C52.7121 105.678 52.6477 105.709 52.58 105.709Z" fill="#767676"/>
<path d="M64.4811 110.982C64.4675 110.982 64.4506 110.982 64.437 110.978C64.3253 110.954 64.2576 110.844 64.2813 110.729C65.2294 106.353 66.3841 101.966 67.5015 97.7249C68.2059 95.0541 68.9305 92.2934 69.5976 89.5638C69.6247 89.4531 69.7364 89.3839 69.8448 89.4116C69.9531 89.4393 70.0209 89.5535 69.9938 89.6642C69.3267 92.3972 68.5986 95.1579 67.8943 97.8322C66.7769 102.07 65.6256 106.45 64.6774 110.816C64.6605 110.916 64.5759 110.982 64.4811 110.982Z" fill="#767676"/>
<path d="M47.6392 101.845C47.5918 101.845 47.5444 101.828 47.5072 101.793C47.4225 101.717 47.4124 101.586 47.4835 101.499L54.2457 93.4318C54.3202 93.3453 54.4489 93.3349 54.5335 93.4075C54.6182 93.4836 54.6283 93.6151 54.5572 93.7016L47.795 101.769C47.7544 101.821 47.6968 101.845 47.6392 101.845Z" fill="#767676"/>
<path d="M58.6434 108.225C58.6197 108.225 58.596 108.221 58.5723 108.211C58.4673 108.169 58.4132 108.052 58.4504 107.941C59.9505 103.807 61.7384 99.7175 63.4654 95.7632C64.0173 94.5039 64.5659 93.2412 65.111 91.9784C65.1551 91.8746 65.277 91.8262 65.3819 91.8712C65.4869 91.9162 65.5309 92.0407 65.4869 92.1479C64.9451 93.4141 64.3932 94.6735 63.8412 95.9362C62.1176 99.8836 60.3331 103.969 58.8364 108.09C58.806 108.173 58.7281 108.225 58.6434 108.225Z" fill="#767676"/>
<path d="M55.8499 91.7326C55.8025 91.7326 55.7585 91.7153 55.7178 91.6842C55.6298 91.6115 55.6196 91.4801 55.6908 91.3901L57.3432 89.3766C57.4143 89.2866 57.5464 89.2762 57.6311 89.3489C57.7191 89.4215 57.7293 89.553 57.6581 89.643L56.0057 91.6565C55.965 91.7084 55.9075 91.7326 55.8499 91.7326Z" fill="#767676"/>
<path d="M58.6434 108.225C58.6197 108.225 58.596 108.221 58.5723 108.211C58.4673 108.169 58.4132 108.052 58.4504 107.941C59.9505 103.807 61.7384 99.7175 63.4654 95.7632C64.0173 94.5039 64.5659 93.2412 65.111 91.9784C65.1551 91.8746 65.277 91.8262 65.3819 91.8712C65.4869 91.9162 65.5309 92.0407 65.4869 92.1479C64.9451 93.4141 64.3932 94.6735 63.8412 95.9362C62.1176 99.8836 60.3331 103.969 58.8364 108.09C58.806 108.173 58.7281 108.225 58.6434 108.225Z" fill="#767676"/>
<path d="M79.2527 112.632C79.1511 112.632 79.0631 112.553 79.0495 112.449C78.5754 108.36 78.2368 104.187 77.9084 100.153C77.6273 96.7008 77.3361 93.1271 76.9636 89.626C76.9501 89.5118 77.0314 89.408 77.1431 89.3976C77.2548 89.3838 77.3564 89.4668 77.37 89.581C77.7425 93.089 78.0337 96.6627 78.3147 100.119C78.6432 104.149 78.9818 108.318 79.4559 112.4C79.4694 112.514 79.3881 112.618 79.2764 112.632C79.2696 112.632 79.2628 112.632 79.2527 112.632Z" fill="#767676"/>
<path d="M86.5027 111.366C86.4113 111.366 86.3266 111.304 86.3029 111.207C85.2126 106.706 83.8852 102.184 82.6018 97.8148C82.0228 95.8428 81.4234 93.8051 80.8545 91.7917C80.824 91.681 80.885 91.5633 80.9934 91.5322C81.1017 91.501 81.2168 91.5633 81.2473 91.674C81.8162 93.684 82.4156 95.7217 82.9912 97.6902C84.2746 102.067 85.6054 106.588 86.6957 111.103C86.7228 111.214 86.6551 111.328 86.5467 111.356C86.5366 111.362 86.5196 111.366 86.5027 111.366Z" fill="#767676"/>
<path d="M94.8839 107.975C94.8094 107.975 94.7383 107.934 94.701 107.861C93.5158 105.495 92.3307 103.08 91.1862 100.745C89.5236 97.3544 87.8068 93.8498 86.0561 90.4386C86.0053 90.3349 86.0426 90.2103 86.1408 90.1584C86.2424 90.1065 86.3643 90.1446 86.4151 90.2449C88.1691 93.663 89.8859 97.1675 91.5485 100.558C92.693 102.893 93.8782 105.308 95.0599 107.671C95.1107 107.775 95.0701 107.899 94.9719 107.951C94.9482 107.968 94.9177 107.975 94.8839 107.975Z" fill="#767676"/>
<path d="M99.7144 92.6531C99.6636 92.6531 99.6128 92.6358 99.5755 92.5943L96.572 89.6883C96.4907 89.6087 96.4873 89.4772 96.5652 89.3942C96.6431 89.3112 96.7718 89.3077 96.853 89.3873L99.8566 92.2933C99.9379 92.3729 99.9412 92.5043 99.8634 92.5873C99.8227 92.6323 99.7685 92.6531 99.7144 92.6531Z" fill="#767676"/>
<path d="M104.763 97.9979C104.709 97.9979 104.655 97.9771 104.617 97.9356L103.263 96.5032C103.185 96.4202 103.185 96.2887 103.266 96.2091C103.348 96.1295 103.476 96.133 103.554 96.2125L104.909 97.645C104.987 97.728 104.987 97.8595 104.905 97.9391C104.865 97.9806 104.814 97.9979 104.763 97.9979Z" fill="#767676"/>
<path d="M71.7036 106.577C71.6968 106.577 71.6935 106.577 71.6867 106.577C71.575 106.567 71.4903 106.467 71.5005 106.353C71.8695 101.63 72.198 97.4995 72.5095 93.7251C72.5197 93.6109 72.6213 93.5313 72.7296 93.5348C72.8413 93.5452 72.926 93.6455 72.9158 93.7597C72.6077 97.5341 72.2759 101.665 71.9068 106.387C71.9 106.494 71.812 106.577 71.7036 106.577Z" fill="#767676"/>
<path d="M71.2242 112.677C71.2174 112.677 71.214 112.677 71.2073 112.677C71.0955 112.667 71.0109 112.566 71.021 112.452L71.4511 107.263C71.4612 107.149 71.5628 107.066 71.6712 107.073C71.7829 107.083 71.8676 107.183 71.8574 107.298L71.4274 112.487C71.4206 112.594 71.3292 112.677 71.2242 112.677Z" fill="#767676"/>
<path d="M100.264 103.744C100.2 103.744 100.139 103.713 100.098 103.658C96.7051 98.8591 93.3426 94.1472 90.102 89.6463C90.0343 89.5529 90.0546 89.4214 90.1461 89.3557C90.2375 89.2865 90.3662 89.3072 90.4305 89.4006C93.6677 93.9016 97.0302 98.617 100.427 103.415C100.494 103.509 100.474 103.64 100.379 103.706C100.349 103.73 100.305 103.744 100.264 103.744Z" fill="#767676"/>
<path d="M94.544 55.4624C94.4864 55.4624 94.4289 55.4381 94.3882 55.3897C94.3138 55.3032 94.3273 55.1683 94.4119 55.0956L107.486 43.8001C107.574 43.724 107.703 43.7378 107.774 43.8243C107.848 43.9108 107.835 44.0457 107.75 44.1183L94.6761 55.4139C94.6388 55.4451 94.5914 55.4624 94.544 55.4624Z" fill="#767676"/>
<path d="M87.2741 50.6361C87.2403 50.6361 87.203 50.6257 87.1725 50.6084C87.0743 50.5496 87.0405 50.4216 87.098 50.3213L87.8803 48.9513C87.9378 48.851 88.0631 48.8198 88.1613 48.8752C88.2595 48.934 88.2934 49.062 88.2358 49.1623L87.4536 50.5323C87.413 50.598 87.3419 50.6361 87.2741 50.6361Z" fill="#767676"/>
<path d="M89.2793 47.3877C89.2421 47.3877 89.2014 47.3773 89.1676 47.3531C89.0727 47.2909 89.049 47.1594 89.11 47.0625L96.8982 35.0541C96.9626 34.9572 97.0879 34.933 97.1827 34.9952C97.2775 35.0575 97.3012 35.189 97.2402 35.2859L89.452 47.2943C89.408 47.3531 89.3436 47.3877 89.2793 47.3877Z" fill="#767676"/>
<path d="M80.7889 47.9481C80.772 47.9481 80.755 47.9446 80.7381 47.9411C80.6297 47.9135 80.562 47.7993 80.5891 47.6886C80.9582 46.1975 81.3307 44.71 81.7032 43.2224C82.8003 38.846 83.9313 34.3244 84.9607 29.8547C84.9878 29.744 85.0961 29.6713 85.2079 29.699C85.3163 29.7267 85.3874 29.8374 85.3603 29.9516C84.3309 34.4247 83.1965 38.9533 82.0994 43.3296C81.7269 44.8172 81.3544 46.3082 80.9853 47.7959C80.9616 47.8858 80.8803 47.9481 80.7889 47.9481Z" fill="#767676"/>
<path d="M99.2521 42.534C99.2047 42.534 99.1573 42.5167 99.12 42.4821C99.0354 42.406 99.0252 42.2746 99.0963 42.1881L101.853 38.8981C101.927 38.8116 102.056 38.8012 102.141 38.8738C102.225 38.9499 102.235 39.0814 102.164 39.1679L99.4078 42.4579C99.3672 42.5098 99.3096 42.534 99.2521 42.534Z" fill="#767676"/>
<path d="M89.0918 37.545C89.0681 37.545 89.041 37.5415 89.0173 37.5312C88.9123 37.4896 88.8615 37.3685 88.9022 37.2613C89.1663 36.5798 89.4575 35.9052 89.7352 35.2513C90.1246 34.3415 90.4937 33.4835 90.8086 32.5875C90.8458 32.4803 90.9643 32.4215 91.0693 32.463C91.1743 32.501 91.2318 32.6221 91.1912 32.7294C90.8695 33.6392 90.4835 34.5456 90.1076 35.4208C89.83 36.0678 89.5422 36.7389 89.278 37.417C89.2476 37.4966 89.1731 37.545 89.0918 37.545Z" fill="#767676"/>
<path d="M98.9123 55.7182C98.8379 55.7182 98.7667 55.6767 98.7329 55.6075C98.6821 55.5038 98.7193 55.3792 98.8175 55.3273L107.811 50.5082C107.913 50.4563 108.035 50.4943 108.086 50.5946C108.136 50.6984 108.099 50.823 108.001 50.8749L99.0072 55.694C98.9767 55.7113 98.9462 55.7182 98.9123 55.7182Z" fill="#767676"/>
<path d="M108.455 50.5913C108.38 50.5913 108.309 50.5498 108.275 50.4806C108.221 50.3768 108.262 50.2523 108.36 50.2004L110.585 49.0102C110.686 48.9583 110.808 48.9964 110.859 49.0967C110.913 49.2005 110.872 49.3251 110.774 49.377L108.549 50.5706C108.522 50.5844 108.488 50.5913 108.455 50.5913Z" fill="#767676"/>
<path d="M103.514 57.2161C103.43 57.2161 103.348 57.1608 103.321 57.0743C103.284 56.9636 103.342 56.846 103.45 56.8079L110.974 54.1962C111.079 54.1616 111.198 54.2169 111.235 54.3276C111.272 54.4383 111.215 54.5559 111.106 54.594L103.582 57.2058C103.558 57.2127 103.538 57.2161 103.514 57.2161Z" fill="#767676"/>
<path d="M88.72 55.5488C88.6726 55.5488 88.6285 55.5315 88.5879 55.5004C88.4999 55.4277 88.4897 55.2962 88.5608 55.2063L96.3457 45.7099C96.4202 45.62 96.5489 45.6096 96.6335 45.6822C96.7216 45.7549 96.7317 45.8863 96.6606 45.9763L88.8757 55.4727C88.8385 55.5211 88.7809 55.5488 88.72 55.5488Z" fill="#767676"/>
<path d="M84.5513 48.8162C84.5242 48.8162 84.4971 48.8093 84.47 48.7989C84.365 48.7539 84.321 48.6294 84.365 48.5221C85.7669 45.2564 87.013 42.302 88.0966 39.2334C88.1339 39.1261 88.2524 39.0673 88.3574 39.1088C88.4623 39.1469 88.5199 39.268 88.4792 39.3752C87.3957 42.4542 86.1428 45.4155 84.7375 48.6882C84.7037 48.7712 84.6292 48.8162 84.5513 48.8162Z" fill="#767676"/>
<path d="M72.4571 50.1995C72.3555 50.1995 72.2674 50.1199 72.2539 50.0127C71.79 45.7539 71.3972 41.4121 71.0213 37.2157C70.7572 34.2819 70.483 31.2479 70.1884 28.2657C70.1782 28.1515 70.2595 28.0478 70.3712 28.0374C70.4829 28.027 70.5845 28.11 70.5947 28.2242C70.8927 31.2064 71.1636 34.2439 71.4277 37.1776C71.8035 41.3706 72.1963 45.709 72.6602 49.9643C72.6738 50.0784 72.5925 50.1822 72.4808 50.196C72.474 50.1995 72.4672 50.1995 72.4571 50.1995Z" fill="#767676"/>
<path d="M68.9914 51.1414C68.9033 51.1414 68.8187 51.0791 68.795 50.9892L65.3715 38.4584C65.341 38.3477 65.4054 38.2336 65.5137 38.2024C65.6221 38.1713 65.7338 38.237 65.7643 38.3477L69.1878 50.8785C69.2182 50.9892 69.1539 51.1033 69.0455 51.1345C69.0252 51.1414 69.0083 51.1414 68.9914 51.1414Z" fill="#767676"/>
<path d="M64.6418 35.2062C64.5537 35.2062 64.4691 35.1439 64.4453 35.054L62.9487 29.5706C62.9182 29.4599 62.9825 29.3458 63.0909 29.3146C63.1992 29.2835 63.311 29.3492 63.3415 29.4599L64.8381 34.9433C64.8686 35.054 64.8043 35.1682 64.6959 35.1993C64.6756 35.2028 64.6587 35.2062 64.6418 35.2062Z" fill="#767676"/>
<path d="M65.092 53.3106C65.0175 53.3106 64.9464 53.2691 64.9092 53.1964C61.2927 45.9209 57.9133 39.3165 54.5813 33.0062C54.5272 32.9059 54.5644 32.7779 54.6626 32.7225C54.7608 32.6671 54.8861 32.7052 54.9403 32.8055C58.2723 39.1193 61.6517 45.7271 65.2715 53.0062C65.3223 53.1099 65.2817 53.2345 65.1835 53.2864C65.153 53.3037 65.1225 53.3106 65.092 53.3106Z" fill="#767676"/>
<path d="M57.2603 55.5244C57.2095 55.5244 57.1587 55.5071 57.1214 55.4656L49.7937 48.3805C49.7124 48.301 49.7091 48.1695 49.7869 48.0865C49.8648 48.0034 49.9935 48 50.0748 48.0795L57.4025 55.1646C57.4837 55.2442 57.4871 55.3757 57.4092 55.4587C57.3686 55.5002 57.3144 55.5244 57.2603 55.5244Z" fill="#767676"/>
<path d="M47.6047 46.0695C47.5505 46.0695 47.4963 46.0487 47.459 46.0072L43.1518 41.4439C43.0739 41.3609 43.0773 41.2294 43.1586 41.1499C43.2399 41.0703 43.3685 41.0738 43.4464 41.1568L47.7536 45.72C47.8315 45.8031 47.8281 45.9345 47.7469 46.0141C47.7062 46.0487 47.6554 46.0695 47.6047 46.0695Z" fill="#767676"/>
<path d="M43.6468 55.272C43.6163 55.272 43.5858 55.2651 43.5587 55.2512L36.2818 51.6879C36.1802 51.6395 36.1362 51.5149 36.187 51.4077C36.2344 51.3039 36.3597 51.2589 36.4612 51.3108L43.7382 54.8742C43.8398 54.9226 43.8838 55.0471 43.833 55.1544C43.7992 55.227 43.7247 55.272 43.6468 55.272Z" fill="#767676"/>
<path d="M76.7626 48.5294C76.7592 48.5294 76.7525 48.5294 76.7491 48.5294C76.6373 48.5225 76.5527 48.4221 76.5595 48.308C76.5933 47.7787 76.6272 47.2528 76.6577 46.7235C76.8405 43.7587 77.0301 40.6969 77.3857 37.694C77.3992 37.5799 77.5008 37.5003 77.6125 37.5107C77.7243 37.5245 77.8056 37.6283 77.792 37.7425C77.4365 40.7315 77.2468 43.7898 77.064 46.7477C77.0301 47.277 76.9997 47.8063 76.9658 48.3322C76.959 48.4429 76.8676 48.5294 76.7626 48.5294Z" fill="#767676"/>
<path d="M77.9923 33.6048C77.9855 33.6048 77.9821 33.6048 77.9753 33.6048C77.8636 33.5944 77.7789 33.4941 77.7891 33.3799L78.2191 28.1904C78.2293 28.0762 78.3343 27.9966 78.4392 28.0001C78.551 28.0105 78.6356 28.1108 78.6255 28.225L78.1954 33.4145C78.1853 33.5217 78.0972 33.6048 77.9923 33.6048Z" fill="#767676"/>
<path d="M50.5476 38.9289C50.4866 38.9289 50.4257 38.9012 50.385 38.8458C49.8297 38.0986 49.271 37.3168 48.7292 36.5591L48.4109 36.1163C48.3432 36.0229 48.3635 35.8915 48.4549 35.8257C48.5463 35.76 48.675 35.7773 48.7393 35.8707L49.0577 36.3135C49.5994 37.0677 50.1548 37.8495 50.7101 38.5933C50.7778 38.6867 50.7609 38.8147 50.6695 38.8874C50.6356 38.915 50.5916 38.9289 50.5476 38.9289Z" fill="#767676"/>
<path d="M62.0125 54.8257C61.9515 54.8257 61.8906 54.7981 61.8499 54.7427C59.5676 51.643 57.2921 48.4602 55.0911 45.3812L53.5334 43.2017C53.4657 43.1083 53.486 42.9768 53.5775 42.9111C53.6689 42.8419 53.7976 42.8626 53.8619 42.9561L55.4195 45.1356C57.6206 48.2145 59.8927 51.3939 62.175 54.4936C62.2427 54.587 62.2258 54.7185 62.1344 54.7877C62.0971 54.8119 62.0531 54.8257 62.0125 54.8257Z" fill="#767676"/>
<path d="M50.6692 55.4763C50.6286 55.4763 50.588 55.466 50.5541 55.4383L44.8856 51.4421C44.7942 51.3764 44.7705 51.2449 44.8348 51.1515C44.8992 51.0581 45.0279 51.0339 45.1193 51.0996L50.7878 55.0957C50.8792 55.1615 50.9029 55.293 50.8386 55.3864C50.7979 55.4452 50.7336 55.4763 50.6692 55.4763Z" fill="#767676"/>
<path d="M43.2976 50.2589C43.2569 50.2589 43.2163 50.2486 43.1824 50.2209L39.7996 47.8339C39.7082 47.7682 39.6845 47.6368 39.7488 47.5433C39.8132 47.4499 39.9419 47.4257 40.0333 47.4914L43.4161 49.8784C43.5075 49.9442 43.5312 50.0756 43.4669 50.169C43.4263 50.2278 43.3619 50.2589 43.2976 50.2589Z" fill="#767676"/>
<path d="M38.7525 82.8882V83.7601C38.7525 84.4105 38.2378 84.9433 37.6012 84.9433H36.2264C36.1248 84.9433 36.0469 84.8603 36.0469 84.76V79.9577C36.0469 79.8539 36.1248 79.7743 36.2264 79.7743H37.4861C38.1227 79.7743 38.6374 80.3071 38.6374 80.9576V81.4385C38.6374 81.6807 38.573 81.9021 38.441 82.0889C38.6374 82.2965 38.7525 82.5802 38.7525 82.8882ZM36.9172 81.7153H37.4895C37.6418 81.7153 37.7705 81.5838 37.7705 81.4281V80.9195C37.7705 80.7569 37.6418 80.6254 37.4895 80.6254H36.9172V81.7153ZM37.8856 82.8467C37.8856 82.684 37.757 82.5526 37.6046 82.5526H36.9172V84.0888H37.6046C37.757 84.0888 37.8856 83.9573 37.8856 83.7843V82.8467Z" fill="#767676"/>
<path d="M40.4235 80.6134V81.7136H41.0601C41.1617 81.7136 41.2396 81.7932 41.2396 81.897V82.3537C41.2396 82.4575 41.1617 82.537 41.0601 82.537H40.4235V84.0973H41.4292C41.5308 84.0973 41.6087 84.1769 41.6087 84.2807V84.7547C41.6087 84.8585 41.5308 84.938 41.4292 84.938H39.7293C39.6277 84.938 39.5499 84.855 39.5499 84.7547V79.9527C39.5499 79.8489 39.6277 79.7693 39.7293 79.7693H41.4292C41.5308 79.7693 41.6087 79.8523 41.6087 79.9527V80.4266C41.6087 80.5304 41.5308 80.61 41.4292 80.61H40.4235V80.6134Z" fill="#767676"/>
<path d="M44.1116 81.077V80.9213C44.1116 80.7587 43.9829 80.6342 43.8238 80.6342H43.4919C43.3328 80.6342 43.2041 80.7587 43.2041 80.9213V81.3711C43.2041 81.5337 43.3328 81.6582 43.4919 81.6651H43.8238C44.4672 81.6651 44.9819 82.191 44.9819 82.8483V83.7581C44.9819 84.4085 44.4604 84.9413 43.8238 84.9413H43.4919C42.8553 84.9413 42.3339 84.4085 42.3339 83.7581V83.1527C42.3339 83.0489 42.4117 82.9694 42.5133 82.9694H43.0179C43.1195 82.9694 43.1973 83.0524 43.1973 83.1527V83.7962C43.1973 83.9588 43.326 84.0902 43.4852 84.0902H43.817C43.9762 84.0902 44.1048 83.9588 44.1048 83.7962V82.8344C44.1048 82.6718 43.9762 82.5473 43.817 82.5473H43.4852C42.8486 82.5404 42.3271 82.0214 42.3271 81.3711V80.949C42.3271 80.2986 42.8486 79.7659 43.4852 79.7659H43.817C44.4604 79.7659 44.9751 80.2986 44.9751 80.949V81.0736C44.9751 81.1773 44.8938 81.2569 44.7956 81.2569H44.2911C44.1895 81.2638 44.1116 81.1808 44.1116 81.077Z" fill="#767676"/>
<path d="M48.061 79.9558V80.4436C48.061 80.5474 47.973 80.627 47.8816 80.627H47.2585V84.7577C47.2585 84.8615 47.1806 84.9411 47.079 84.9411H46.5711C46.4763 84.9411 46.3916 84.8581 46.3916 84.7577V80.627H45.7754C45.6738 80.627 45.5959 80.5439 45.5959 80.4436V79.9558C45.5959 79.852 45.6738 79.7724 45.7754 79.7724H47.8782C47.973 79.769 48.061 79.852 48.061 79.9558Z" fill="#767676"/>
<path d="M52.8039 84.0904H53.0918C53.1798 84.0904 53.2645 84.1734 53.2645 84.2737V84.7546C53.2645 84.8584 53.1764 84.9379 53.0748 84.9379H51.6425C51.077 84.9379 50.6232 84.4709 50.6232 83.9035V80.8072C50.6232 80.2294 51.0804 79.7659 51.6425 79.7659H52.2486C52.8141 79.7659 53.2679 80.2329 53.2679 80.8072V83.3569C53.2746 83.6856 53.0782 83.9658 52.8039 84.0904ZM52.4044 80.8107C52.4044 80.7069 52.3163 80.6204 52.2147 80.6204H51.6797C51.5781 80.6204 51.4935 80.7103 51.4935 80.8107V83.907C51.4935 84.0039 51.5815 84.0904 51.6797 84.0904H52.4044V80.8107Z" fill="#767676"/>
<path d="M56.103 79.7693H56.6075C56.7091 79.7693 56.787 79.8592 56.787 79.963V83.9969C56.787 84.5124 56.3671 84.9414 55.8626 84.9414H55.0668C54.5588 84.9414 54.1423 84.5124 54.1423 83.9969V79.963C54.1423 79.8592 54.2202 79.7693 54.3218 79.7693H54.8297C54.9313 79.7693 55.0092 79.8592 55.0092 79.963V83.907C55.0092 84.0107 55.0973 84.0903 55.1988 84.0903H55.7339C55.8355 84.0903 55.9235 84.0107 55.9235 83.907V79.963C55.9201 79.8592 56.0014 79.7693 56.103 79.7693Z" fill="#767676"/>
<path d="M60.2174 84.1076V84.758C60.2174 84.8618 60.1362 84.9414 60.038 84.9414H59.5233C59.4285 84.9414 59.3506 84.8583 59.3506 84.758V84.0869H58.3821V84.758C58.3821 84.8618 58.3042 84.9414 58.2027 84.9414H57.6947C57.5931 84.9414 57.5153 84.8583 57.5153 84.758V84.1076C57.5153 84.0765 57.5153 84.0557 57.522 84.0107L58.1451 79.9319C58.1586 79.835 58.2399 79.7693 58.3347 79.7693H59.4183C59.5131 79.7693 59.5842 79.8523 59.5978 79.9319L60.2107 84.0107C60.2174 84.0557 60.2174 84.0765 60.2174 84.1076ZM59.249 83.2496L58.8663 80.6411L58.4837 83.2496H59.249Z" fill="#767676"/>
<path d="M61.8082 79.9558V84.1004H62.8207C62.9223 84.1004 63.0002 84.18 63.0002 84.2838V84.7577C63.0002 84.8615 62.9223 84.9411 62.8207 84.9411H61.1208C61.0192 84.9411 60.9413 84.8581 60.9413 84.7577V79.9558C60.9413 79.852 61.0192 79.7724 61.1208 79.7724H61.6287C61.7303 79.769 61.8082 79.852 61.8082 79.9558Z" fill="#767676"/>
<path d="M64.376 84.9414H63.8714C63.7698 84.9414 63.692 84.8583 63.692 84.758V79.963C63.692 79.8592 63.7732 79.7693 63.8714 79.7693H64.376C64.4776 79.7693 64.5554 79.8592 64.5554 79.963V84.758C64.5588 84.8618 64.4776 84.9414 64.376 84.9414Z" fill="#767676"/>
<path d="M67.7096 79.9558V80.4436C67.7096 80.5474 67.6215 80.627 67.5301 80.627H66.9071V84.7577C66.9071 84.8615 66.8292 84.9411 66.7276 84.9411H66.2197C66.1249 84.9411 66.0402 84.8581 66.0402 84.7577V80.627H65.4239C65.3223 80.627 65.2444 80.5439 65.2444 80.4436V79.9558C65.2444 79.852 65.3223 79.7724 65.4239 79.7724H67.5267C67.6215 79.769 67.7096 79.852 67.7096 79.9558Z" fill="#767676"/>
<path d="M70.3419 79.7693H70.8464C70.948 79.7693 71.0259 79.8523 71.0259 79.9527V80.6827C71.0259 80.7622 71.0124 80.8453 70.9751 80.9179L70.0575 82.845V84.7514C70.0575 84.8552 69.9762 84.9347 69.878 84.9347H69.3734C69.2719 84.9347 69.194 84.8517 69.194 84.7514V82.845L68.2695 80.9179C68.2391 80.8453 68.2188 80.7622 68.2188 80.6827V79.9527C68.2188 79.8489 68.2966 79.7693 68.3982 79.7693H68.9061C69.0077 79.7693 69.0856 79.8523 69.0856 79.9527V80.5131C69.0856 80.572 69.0992 80.6308 69.1296 80.6827L69.6274 81.731L70.1252 80.6827C70.1455 80.6308 70.1624 80.572 70.1624 80.5131V79.9527C70.1624 79.8523 70.2403 79.7693 70.3419 79.7693Z" fill="#767676"/>
<path d="M75.5365 82.3571C75.5365 82.9245 75.0895 83.3847 74.5308 83.3847C73.9822 83.3847 73.5251 82.928 73.5251 82.3571C73.5251 81.7966 73.9822 81.3295 74.5308 81.3295C75.0861 81.3295 75.5365 81.7931 75.5365 82.3571Z" fill="#767676"/>
<path d="M80.9169 82.8861V83.7579C80.9169 84.4083 80.4022 84.9411 79.7656 84.9411H78.3908C78.2892 84.9411 78.2113 84.858 78.2113 84.7577V79.9559C78.2113 79.8522 78.2926 79.7726 78.3908 79.7726H79.6504C80.287 79.7726 80.8017 80.3053 80.8017 80.9557V81.4366C80.8017 81.6788 80.7374 81.9002 80.6053 82.087C80.7983 82.2946 80.9169 82.5782 80.9169 82.8861ZM79.0782 81.7134H79.6504C79.8028 81.7134 79.9315 81.5819 79.9315 81.4262V80.9177C79.9315 80.7551 79.8028 80.6236 79.6504 80.6236H79.0782V81.7134ZM80.0466 82.8446C80.0466 82.682 79.9179 82.5506 79.7656 82.5506H79.0782V84.0866H79.7656C79.9179 84.0866 80.0466 83.9551 80.0466 83.7821V82.8446Z" fill="#767676"/>
<path d="M82.5863 80.6134V81.7136H83.223C83.3245 81.7136 83.4024 81.7932 83.4024 81.897V82.3537C83.4024 82.4575 83.3245 82.537 83.223 82.537H82.5863V84.0973H83.592C83.6936 84.0973 83.7715 84.1769 83.7715 84.2807V84.7547C83.7715 84.8585 83.6936 84.938 83.592 84.938H81.8922C81.7906 84.938 81.7127 84.855 81.7127 84.7547V79.9527C81.7127 79.8489 81.7906 79.7693 81.8922 79.7693H83.592C83.6936 79.7693 83.7715 79.8523 83.7715 79.9527V80.4266C83.7715 80.5304 83.6936 80.61 83.592 80.61H82.5863V80.6134Z" fill="#767676"/>
<path d="M86.2744 81.077V80.9213C86.2744 80.7587 86.1458 80.6342 85.9866 80.6342H85.6548C85.4956 80.6342 85.367 80.7587 85.367 80.9213V81.3711C85.367 81.5337 85.4956 81.6582 85.6548 81.6651H85.9866C86.63 81.6651 87.1447 82.191 87.1447 82.8483V83.7581C87.1447 84.4085 86.6232 84.9413 85.9866 84.9413H85.6548C85.0182 84.9413 84.4967 84.4085 84.4967 83.7581V83.1527C84.4967 83.0489 84.5746 82.9694 84.6762 82.9694H85.1807C85.2823 82.9694 85.3602 83.0524 85.3602 83.1527V83.7962C85.3602 83.9588 85.4889 84.0902 85.648 84.0902H85.9799C86.139 84.0902 86.2677 83.9588 86.2677 83.7962V82.8344C86.2677 82.6718 86.139 82.5473 85.9799 82.5473H85.648C85.0114 82.5404 84.4899 82.0214 84.4899 81.3711V80.949C84.4899 80.2986 85.0114 79.7659 85.648 79.7659H85.9799C86.6232 79.7659 87.1379 80.2986 87.1379 80.949V81.0736C87.1379 81.1773 87.0566 81.2569 86.9584 81.2569H86.4539C86.3557 81.2638 86.2744 81.1808 86.2744 81.077Z" fill="#767676"/>
<path d="M90.2217 79.9558V80.4436C90.2217 80.5474 90.1337 80.627 90.0423 80.627H89.4192V84.7577C89.4192 84.8615 89.3413 84.9411 89.2397 84.9411H88.7318C88.637 84.9411 88.5523 84.8581 88.5523 84.7577V80.627H87.936C87.8344 80.627 87.7565 80.5439 87.7565 80.4436V79.9558C87.7565 79.852 87.8344 79.7724 87.936 79.7724H90.0389C90.1371 79.769 90.2217 79.852 90.2217 79.9558Z" fill="#767676"/>
<path d="M95.365 80.9523V81.4262C95.365 82.0766 94.8436 82.6094 94.2137 82.6094H93.6584V84.7577C93.6584 84.8615 93.5771 84.9411 93.4789 84.9411H92.9744C92.8728 84.9411 92.7949 84.858 92.7949 84.7577V79.956C92.7949 79.8522 92.8762 79.7726 92.9744 79.7726H94.2171C94.8436 79.7691 95.365 80.3019 95.365 80.9523ZM94.4982 80.9142C94.4982 80.7516 94.3763 80.6202 94.2171 80.6202H93.6618V81.7134H94.2171C94.3763 81.7134 94.4982 81.5819 94.4982 81.4262V80.9142Z" fill="#767676"/>
<path d="M97.9447 82.5263L98.5949 83.7683C98.6321 83.8409 98.6457 83.9309 98.6457 84.0105V84.7508C98.6457 84.8546 98.5746 84.9341 98.473 84.9341H97.9684C97.8669 84.9341 97.7788 84.8546 97.7788 84.7508V84.2353C97.7788 84.1523 97.7653 84.0727 97.728 83.9828L96.956 82.5194V84.7577C96.956 84.8615 96.8747 84.9411 96.7765 84.9411H96.272C96.1772 84.9411 96.0925 84.858 96.0925 84.7577V79.9559C96.0925 79.8522 96.1806 79.7726 96.272 79.7726H97.5215C98.1581 79.7726 98.6694 80.3053 98.6694 80.9557V81.4228C98.6694 81.9209 98.3646 82.3465 97.9447 82.5263ZM97.5181 80.6202H96.9526V81.7203H97.5181C97.6705 81.7203 97.7991 81.5888 97.7991 81.4158V80.9073C97.8025 80.7447 97.6705 80.6202 97.5181 80.6202Z" fill="#767676"/>
<path d="M100.079 84.9414H99.5741C99.4725 84.9414 99.3947 84.8583 99.3947 84.758V79.963C99.3947 79.8592 99.4759 79.7693 99.5741 79.7693H100.079C100.18 79.7693 100.258 79.8592 100.258 79.963V84.758C100.262 84.8618 100.18 84.9414 100.079 84.9414Z" fill="#767676"/>
<path d="M103.014 82.5474H103.519C103.62 82.5474 103.698 82.6374 103.698 82.7377V83.9936C103.698 84.5091 103.285 84.938 102.774 84.938H101.978C101.47 84.938 101.053 84.5091 101.053 83.9936V80.7138C101.053 80.1879 101.467 79.7693 101.978 79.7693H102.774C103.288 79.7693 103.698 80.1914 103.698 80.7138V81.5268C103.698 81.6306 103.617 81.7206 103.519 81.7206H103.014C102.912 81.7206 102.835 81.6306 102.835 81.5268V80.7968C102.835 80.693 102.746 80.6134 102.655 80.6134H102.113C102.012 80.6134 101.924 80.6965 101.924 80.7968V83.9001C101.924 84.0039 102.012 84.0835 102.113 84.0835H102.655C102.75 84.0835 102.835 84.0039 102.835 83.9001V82.7412C102.835 82.6374 102.916 82.5474 103.014 82.5474Z" fill="#767676"/>
<path d="M105.375 80.6134V81.7136H106.012C106.113 81.7136 106.191 81.7932 106.191 81.897V82.3537C106.191 82.4575 106.113 82.537 106.012 82.537H105.375V84.0973H106.381C106.483 84.0973 106.56 84.1769 106.56 84.2807V84.7547C106.56 84.8585 106.483 84.938 106.381 84.938H104.681C104.58 84.938 104.502 84.855 104.502 84.7547V79.9527C104.502 79.8489 104.58 79.7693 104.681 79.7693H106.381C106.483 79.7693 106.56 79.8523 106.56 79.9527V80.4266C106.56 80.5304 106.483 80.61 106.381 80.61H105.375V80.6134Z" fill="#767676"/>
<path d="M109.256 80.5718C114.481 80.5718 119.706 80.5718 124.931 80.5718C125.591 80.5718 125.591 79.5273 124.931 79.5273C119.706 79.5273 114.481 79.5273 109.256 79.5273C108.599 79.5273 108.599 80.5718 109.256 80.5718Z" fill="#767676"/>
<path d="M109.256 82.8C112.663 82.8 116.069 82.8 119.479 82.8C120.139 82.8 120.139 81.7552 119.479 81.7552C116.072 81.7552 112.666 81.7552 109.256 81.7552C108.599 81.7552 108.599 82.8 109.256 82.8Z" fill="#767676"/>
<path d="M109.256 84.8895C110.8 84.8895 112.344 84.8895 113.888 84.8895C114.549 84.8895 114.549 83.8445 113.888 83.8445C112.344 83.8445 110.8 83.8445 109.256 83.8445C108.599 83.8445 108.599 84.8895 109.256 84.8895Z" fill="#767676"/>
<path d="M32.7956 79.5275C27.5707 79.5275 22.3458 79.5275 17.121 79.5275C16.4607 79.5275 16.4607 80.572 17.121 80.572C22.3458 80.572 27.5707 80.572 32.7956 80.572C33.4559 80.572 33.4559 79.5275 32.7956 79.5275Z" fill="#767676"/>
<path d="M32.7972 81.7552C29.3907 81.7552 25.9842 81.7552 22.5743 81.7552C21.914 81.7552 21.914 82.8 22.5743 82.8C25.9808 82.8 29.3873 82.8 32.7972 82.8C33.4575 82.8 33.4575 81.7552 32.7972 81.7552Z" fill="#767676"/>
<path d="M32.7964 83.8445C31.2523 83.8445 29.7082 83.8445 28.1641 83.8445C27.5037 83.8445 27.5037 84.8895 28.1641 84.8895C29.7082 84.8895 31.2523 84.8895 32.7964 84.8895C33.4567 84.8895 33.4567 83.8445 32.7964 83.8445Z" fill="#767676"/>
</g>
<defs>
<clipPath id="clip0_311_1499">
<rect width="140" height="140" fill="white"/>
</clipPath>
</defs>
</svg>
